<svg width="668" height="158" viewBox="0 0 668 158" fill="none" xmlns="http://www.w3.org/2000/svg">
<path d="M281.755 92.9194C288.66 96.9303 296.433 99.2012 304.406 99.5371C309.26 99.5371 312.212 98.2215 312.212 95.0968C312.212 90.6566 305.79 91.0973 297.124 88.9199C286.281 86.2228 279.859 81.6839 279.859 72.2968C279.859 60.1995 290.702 53.3253 304.937 53.3253C312.493 53.2544 319.977 54.7972 326.892 57.8511V72.8231C320.308 69.1582 312.965 67.0732 305.442 66.7317C300.758 66.7317 297.983 68.1197 297.983 70.7312C297.983 74.7373 304.143 74.7373 312.645 76.6516C323.58 79.3486 330.264 83.5258 330.264 93.4457C330.264 105.944 319.152 112.851 304.491 112.851C296.698 112.882 288.988 111.25 281.873 108.062L281.787 92.9326L281.755 92.9194ZM378.905 109.891C374.925 112.004 370.479 113.081 365.976 113.022C363.228 113.148 360.484 112.702 357.916 111.714C355.348 110.726 353.011 109.216 351.052 107.28C348.015 104.063 346.021 99.274 346.021 90.1369V69.0867H336.732V54.4568H346.021V32.183H363.732V54.4568H378.918V69.1656H363.719V88.3936C363.719 93.9654 365.031 98.1425 370.404 98.1425C373.382 97.9858 376.291 97.1847 378.931 95.7941V109.891H378.905ZM511.846 32.183H529.557V78.6514H529.82L549.866 54.3121H569.907L547.957 79.967L571.573 111.648H550.64L529.728 82.3943H529.465V111.542H511.754L511.846 32.183ZM591.58 94.314C591.58 85.6966 593.548 81.0853 599.649 79.0855V78.8224C593.574 76.8489 591.58 72.2442 591.58 63.5939V43.0502C591.58 36.8733 589.409 34.6959 584.207 34.6959C582.721 34.7123 581.239 34.8597 579.779 35.1366V22.6973C582.446 22.2497 585.144 22.0166 587.848 22C601.649 22 607.894 29.8346 607.894 40.9715V64.2912C607.894 70.2115 609.541 72.56 615.615 72.56H619V85.348H615.615C609.541 85.348 607.894 87.7029 607.894 93.6167V117.029C607.894 128.165 601.472 136 587.848 136C585.144 135.983 582.446 135.75 579.779 135.303V122.857C581.23 123.201 582.716 123.376 584.207 123.376C589.324 123.376 591.58 121.206 591.58 115.022V94.314ZM442.535 98.4057C440.108 98.4057 439.065 96.5769 439.065 93.8799V74.4742C439.313 71.5134 438.861 68.5356 437.745 65.7832C436.629 63.0307 434.881 60.5812 432.643 58.6339C427.065 54.7282 420.348 52.7999 413.554 53.1543C406.622 53.0891 399.767 54.6075 393.507 57.5946V72.8231C398.631 69.9499 404.385 68.395 410.254 68.2973C413.397 68.0448 416.529 68.9061 419.103 70.7312C419.856 71.5477 420.436 72.5081 420.809 73.5548C421.182 74.6015 421.34 75.713 421.275 76.8226V79.0855C418.023 78.3887 414.707 78.0381 411.383 78.0396C405.766 77.7849 400.197 79.177 395.357 82.0457C393.118 83.5663 391.299 85.6304 390.069 88.0458C388.84 90.4612 388.24 93.1493 388.325 95.8599C388.255 98.4815 388.837 101.079 390.019 103.419C391.201 105.758 392.945 107.766 395.095 109.26C399.056 111.792 403.675 113.095 408.372 113.003C414.084 113.094 419.687 111.425 424.423 108.22L424.601 108.128C426.256 109.683 428.209 110.886 430.341 111.664C432.473 112.442 434.74 112.779 437.005 112.654C439.943 112.737 442.86 112.143 445.533 110.917V97.7084C444.597 98.1599 443.573 98.398 442.535 98.4057ZM421.36 97.7084C418.92 99.1805 416.139 99.9898 413.292 100.057C409.126 100.057 405.912 98.0833 405.912 94.314C405.912 89.8737 410.504 88.4857 415.023 88.4857C417.16 88.4809 419.289 88.7438 421.36 89.2686V97.7084ZM500.668 108.589C494.856 111.615 488.383 113.139 481.835 113.022C463.435 113.022 449.692 100.405 449.692 83.1771C449.692 65.1595 464.622 53.1543 482.583 53.1543C488.505 53.1573 494.347 54.5258 499.658 57.1538V73.5993C494.914 70.3469 489.349 68.5065 483.606 68.2907C480.891 68.1632 478.192 68.7852 475.805 70.0889C473.418 71.3926 471.433 73.328 470.067 75.6846C468.681 78.0235 467.959 80.6974 467.978 83.4177C467.997 86.1381 468.756 88.8017 470.174 91.121C471.591 93.4404 473.614 95.3276 476.022 96.5789C478.431 97.8302 481.135 98.3981 483.842 98.2215C489.917 98.128 495.809 96.1187 500.681 92.4787V108.582L500.668 108.589ZM250.95 33.1369H268.661V111.72H250.95V33.1369ZM145.337 108.589C139.539 111.562 133.108 113.083 126.596 113.022C108.228 113.022 94.4856 100.405 94.4856 83.1771C94.4856 65.1595 109.416 53.1543 127.376 53.1543C133.276 53.1681 139.095 54.5362 144.386 57.1538V73.5993C139.639 70.3467 134.072 68.5064 128.328 68.2907C125.621 68.1772 122.935 68.801 120.554 70.0957C118.172 71.3904 116.185 73.3077 114.804 75.6439C113.422 77.9802 112.697 80.6481 112.706 83.3644C112.714 86.0807 113.457 88.7438 114.854 91.071C116.28 93.3939 118.309 95.2845 120.724 96.5405C123.139 97.7964 125.849 98.3707 128.564 98.2017C134.613 98.1213 140.479 96.1097 145.311 92.459V108.562L145.337 108.589ZM208.311 98.4057C205.884 98.4057 204.841 96.5769 204.841 93.8799V74.4742C205.089 71.5134 204.637 68.5356 203.521 65.7832C202.405 63.0307 200.657 60.5812 198.419 58.6339C192.842 54.7264 186.124 52.7979 179.33 53.1543C172.398 53.0898 165.543 54.6082 159.283 57.5946V72.8231C164.407 69.9507 170.161 68.3958 176.03 68.2973C179.173 68.0437 182.305 68.9051 184.88 70.7312C185.633 71.5466 186.214 72.5068 186.588 73.5538C186.961 74.6008 187.118 75.7128 187.051 76.8226V79.0855C183.799 78.3882 180.484 78.0376 177.159 78.0396C171.529 77.7363 165.938 79.1317 161.107 82.0457C158.868 83.5671 157.05 85.6314 155.821 88.0466C154.591 90.4618 153.991 93.1495 154.075 95.8599C154.008 98.481 154.592 101.078 155.773 103.416C156.955 105.755 158.698 107.763 160.844 109.26C164.806 111.792 169.425 113.095 174.121 113.003C179.834 113.094 185.437 111.425 190.173 108.22L190.35 108.128C192.007 109.684 193.961 110.887 196.094 111.665C198.227 112.443 200.495 112.779 202.762 112.654C205.699 112.737 208.617 112.143 211.289 110.917V97.7084C210.36 98.1571 209.343 98.3951 208.311 98.4057ZM187.051 97.7084C184.61 99.1805 181.83 99.9898 178.982 100.057C174.817 100.057 171.609 98.0833 171.609 94.314C171.609 89.8737 176.201 88.4857 180.721 88.4857C182.855 88.4813 184.982 88.7442 187.051 89.2686V97.7084ZM220.46 33.1369H238.171V111.72H220.46V33.1369ZM60.1057 93.6167C60.1057 87.6964 58.4592 85.348 52.3849 85.348H49V72.56H52.3849C58.4592 72.56 60.1057 70.2115 60.1057 64.2912V40.9715C60.1057 29.7425 66.5278 22 80.1525 22C82.8562 22.0166 85.5543 22.2497 88.221 22.6973V35.1564C86.7726 34.8096 85.2888 34.633 83.7997 34.6301C78.6765 34.6301 76.4199 36.8075 76.4199 42.9844V63.5084C76.4199 72.1258 74.452 76.7371 68.3514 78.7369V79C74.4258 80.9735 76.4199 85.5782 76.4199 94.2285V114.752C76.4199 120.929 78.6765 123.107 83.7997 123.107C85.2888 123.104 86.7726 122.927 88.221 122.58V135.026C85.5543 135.474 82.8562 135.707 80.1525 135.724C66.3769 135.724 60.1057 127.889 60.1057 116.752V93.6167Z" fill="#8232FF"/>
</svg>
