<svg width="668" height="158" viewBox="0 0 668 158" fill="none" xmlns="http://www.w3.org/2000/svg">
<g clip-path="url(#clip0_79_569)">
<path d="M83.5286 96.085C83.5286 102.282 84.8887 107.039 86.6663 109.917C88.9971 113.687 92.4735 115.284 96.0176 115.284C100.589 115.284 104.771 114.15 112.829 103.004C119.286 94.0703 126.893 81.5305 132.012 73.6692L140.68 60.3506C146.701 51.101 153.671 40.8186 161.662 33.8489C168.186 28.1603 175.224 25 182.306 25C194.197 25 205.523 31.8907 214.192 44.8142C223.678 58.968 228.283 76.7957 228.283 95.1934C228.283 106.13 226.128 114.167 222.459 120.516C218.915 126.656 212.008 132.79 200.388 132.79V115.284C210.337 115.284 212.82 106.142 212.82 95.6787C212.82 80.7687 209.344 64.222 201.686 52.399C196.251 44.0128 189.208 38.8886 181.46 38.8886C173.079 38.8886 166.335 45.2092 158.756 56.4792C154.726 62.4669 150.59 69.7639 145.945 77.9977L140.832 87.0555C130.561 105.267 127.96 109.415 122.824 116.26C113.823 128.247 106.136 132.79 96.0176 132.79C84.0139 132.79 76.4235 127.592 71.7225 119.759C67.8849 113.377 66 105.002 66 95.4586L83.5286 96.085Z" fill="#0081FB"/>
<path d="M79.8209 46.0501C87.8572 33.6627 99.4545 25 112.756 25C120.459 25 128.118 27.28 136.114 33.8094C144.862 40.9484 154.185 52.7037 165.816 72.0777L169.986 79.0305C180.054 95.8028 185.783 104.432 189.135 108.501C193.446 113.726 196.466 115.284 200.388 115.284C210.337 115.284 212.82 106.142 212.82 95.6787L228.283 95.1934C228.283 106.13 226.128 114.167 222.459 120.516C218.915 126.656 212.008 132.79 200.388 132.79C193.164 132.79 186.764 131.221 179.688 124.545C174.247 119.421 167.887 110.318 162.994 102.135L148.44 77.8228C141.137 65.6216 134.438 56.5244 130.561 52.4046C126.391 47.9745 121.029 42.6245 112.474 42.6245C105.549 42.6245 99.669 47.4835 94.7479 54.916L79.8209 46.0501Z" fill="url(#paint0_linear_79_569)"/>
<path d="M112.474 42.6245C105.549 42.6245 99.6689 47.4835 94.7478 54.916C87.7894 65.4185 83.5286 81.0621 83.5286 96.085C83.5286 102.282 84.8887 107.039 86.6664 109.917L71.7225 119.759C67.8849 113.377 66 105.002 66 95.4586C66 78.105 70.7631 60.0177 79.8208 46.0501C87.8571 33.6627 99.4544 25 112.756 25L112.474 42.6245Z" fill="url(#paint1_linear_79_569)"/>
<path d="M262.359 28.4087H282.635L317.111 90.7802L351.593 28.4087H371.43V130.894H354.889V52.3482L324.651 106.74H309.132L278.899 52.3482V130.894H262.359V28.4087ZM423.259 66.6206C411.397 66.6206 404.252 75.5485 402.542 86.6041H442.802C441.973 75.2156 435.404 66.6206 423.259 66.6206ZM386.142 92.9022C386.142 69.6398 401.176 52.7094 423.547 52.7094C445.551 52.7094 458.689 69.4254 458.689 94.1437V98.6867H402.542C404.534 110.713 412.514 118.817 425.381 118.817C435.647 118.817 442.063 115.685 448.147 109.957L456.934 120.719C448.655 128.332 438.124 132.722 424.794 132.722C400.578 132.722 386.142 115.064 386.142 92.9022ZM478.746 68.0879H463.52V54.5436H478.746V32.1447H494.705V54.5436H517.838V68.0879H494.705V102.417C494.705 114.138 498.453 118.303 507.663 118.303C511.867 118.303 514.277 117.942 517.838 117.35V130.747C513.402 132 509.17 132.576 504.587 132.576C487.358 132.576 478.746 123.162 478.746 104.319V68.0879ZM585.04 81.2597C581.835 73.167 574.685 67.2075 564.176 67.2075C550.519 67.2075 541.777 76.8973 541.777 92.6821C541.777 108.072 549.825 118.23 563.522 118.23C574.289 118.23 581.976 111.966 585.04 104.172V81.2597ZM601 130.894H585.334V120.205C580.954 126.498 572.986 132.722 560.079 132.722C539.323 132.722 525.451 115.346 525.451 92.6821C525.451 69.8035 539.656 52.7094 560.96 52.7094C571.49 52.7094 579.752 56.9195 585.334 64.3519V54.5436H601V130.894Z" fill="#192830"/>
</g>
<defs>
<linearGradient id="paint0_linear_79_569" x1="100.425" y1="91.0285" x2="212.166" y2="96.6719" gradientUnits="userSpaceOnUse">
<stop stop-color="#0064E1"/>
<stop offset="0.4" stop-color="#0064E1"/>
<stop offset="0.83" stop-color="#0073EE"/>
<stop offset="1" stop-color="#0082FB"/>
</linearGradient>
<linearGradient id="paint1_linear_79_569" x1="91.3956" y1="103.444" x2="91.3956" y2="62.2468" gradientUnits="userSpaceOnUse">
<stop stop-color="#0082FB"/>
<stop offset="1" stop-color="#0064E0"/>
</linearGradient>
<clipPath id="clip0_79_569">
<rect x="66" y="25" width="535" height="107.79" rx="20" fill="white"/>
</clipPath>
</defs>
</svg>
