<svg id="_x3C_Layer_x3E_" height="512" viewBox="0 0 32 32" width="512" xmlns="http://www.w3.org/2000/svg"><g id="search_x2C__magnifier_x2C__magnifying_x2C__emoji_x2C__No_results"><g id="XMLID_1857_"><g id="XMLID_1791_"><g id="XMLID_1797_"><path d="m17.5 13c.27 0 .5.23.5.5s-.23.5-.5.5-.5-.23-.5-.5.23-.5.5-.5z" fill="#263238"/></g><g id="XMLID_1794_"><path d="m8.5 13c.27 0 .5.23.5.5s-.23.5-.5.5-.5-.23-.5-.5.23-.5.5-.5z" fill="#263238"/></g></g></g><g id="XMLID_1764_"><g id="XMLID_1934_"><g id="XMLID_1940_"><path d="m23.43 23.901c-.128 0-.256-.049-.354-.146l-2.216-2.216c-.195-.195-.195-.512 0-.707s.512-.195.707 0l2.216 2.216c.195.195.195.512 0 .707-.097.098-.225.146-.353.146z" fill="#455a64"/></g><g id="XMLID_1939_"><path d="m28.5 31c-.667 0-1.295-.26-1.768-.732l-3.5-3.5c-.472-.473-.732-1.1-.732-1.768s.26-1.295.732-1.768c.906-.906 2.629-.906 3.535 0l3.5 3.5c.473.473.733 1.1.733 1.768s-.26 1.295-.732 1.768-1.101.732-1.768.732zm-3.5-7.48c-.407 0-.793.152-1.061.42-.283.283-.439.66-.439 1.06s.156.777.439 1.061l3.5 3.5c.567.566 1.554.566 2.121 0 .284-.284.44-.661.44-1.061s-.156-.777-.439-1.061l-3.5-3.5c-.268-.267-.654-.419-1.061-.419z" fill="#455a64"/></g><g id="XMLID_1938_"><path d="m13 25c-6.617 0-12-5.383-12-12s5.383-12 12-12 12 5.383 12 12-5.383 12-12 12zm0-23c-6.065 0-11 4.935-11 11s4.935 11 11 11 11-4.935 11-11-4.935-11-11-11z" fill="#455a64"/></g><g id="XMLID_1937_"><path d="m14 16.021c-.276 0-.5-.224-.5-.5 0-.275-.224-.5-.5-.5s-.5.225-.5.5c0 .276-.224.5-.5.5s-.5-.224-.5-.5c0-.827.673-1.5 1.5-1.5s1.5.673 1.5 1.5c0 .276-.224.5-.5.5z" fill="#455a64"/></g><g id="XMLID_1936_"><path d="m17.5 14.5c-.542 0-1-.458-1-1s.458-1 1-1 1 .458 1 1-.458 1-1 1z" fill="#455a64"/></g><g id="XMLID_1935_"><path d="m8.5 14.5c-.542 0-1-.458-1-1s.458-1 1-1 1 .458 1 1-.458 1-1 1z" fill="#455a64"/></g></g><g id="XMLID_1927_"><g id="XMLID_1933_"><path d="m23.43 23.901c-.128 0-.256-.049-.354-.146l-2.216-2.216c-.195-.195-.195-.512 0-.707s.512-.195.707 0l2.216 2.216c.195.195.195.512 0 .707-.097.098-.225.146-.353.146z" fill="#263238"/></g><g id="XMLID_1932_"><path d="m28.5 31c-.667 0-1.295-.26-1.768-.732l-3.5-3.5c-.472-.473-.732-1.1-.732-1.768s.26-1.295.732-1.768c.906-.906 2.629-.906 3.535 0l3.5 3.5c.473.473.733 1.1.733 1.768s-.26 1.295-.732 1.768-1.101.732-1.768.732zm-3.5-7.48c-.407 0-.793.152-1.061.42-.283.283-.439.66-.439 1.06s.156.777.439 1.061l3.5 3.5c.567.566 1.554.566 2.121 0 .284-.284.44-.661.44-1.061s-.156-.777-.439-1.061l-3.5-3.5c-.268-.267-.654-.419-1.061-.419z" fill="#263238"/></g><g id="XMLID_1931_"><path d="m13 25c-6.617 0-12-5.383-12-12s5.383-12 12-12 12 5.383 12 12-5.383 12-12 12zm0-23c-6.065 0-11 4.935-11 11s4.935 11 11 11 11-4.935 11-11-4.935-11-11-11z" fill="#263238"/></g><g id="XMLID_1930_"><path d="m14 16.021c-.276 0-.5-.224-.5-.5 0-.275-.224-.5-.5-.5s-.5.225-.5.5c0 .276-.224.5-.5.5s-.5-.224-.5-.5c0-.827.673-1.5 1.5-1.5s1.5.673 1.5 1.5c0 .276-.224.5-.5.5z" fill="#263238"/></g><g id="XMLID_1929_"><path d="m17.5 14.5c-.542 0-1-.458-1-1s.458-1 1-1 1 .458 1 1-.458 1-1 1z" fill="#263238"/></g><g id="XMLID_1928_"><path d="m8.5 14.5c-.542 0-1-.458-1-1s.458-1 1-1 1 .458 1 1-.458 1-1 1z" fill="#263238"/></g></g></g></g></svg>