<svg width="200" height="200" viewBox="0 0 200 200" fill="none" xmlns="http://www.w3.org/2000/svg">
<g clip-path="url(#clip0_21_196)">
<path d="M99.9932 81.146C89.8936 81.146 81.7062 89.3428 81.7062 99.4542C81.7062 109.565 89.8936 117.762 99.9932 117.762C110.093 117.762 118.28 109.565 118.28 99.4542C118.28 89.3428 110.093 81.146 99.9932 81.146Z" fill="#087EA4"/>
<path d="M195.986 99.4542C195.986 85.0043 182.617 72.331 161.329 63.9906C161.614 62.1123 161.871 60.2544 162.054 58.4303C164.154 37.6675 159.155 22.6819 147.986 16.2266C135.49 9.00506 117.84 14.2466 99.9932 28.5406C82.1465 14.2466 64.4961 9.00506 52 16.2266C40.8314 22.6819 35.8329 37.6675 37.9326 58.4303C38.1154 60.2544 38.366 62.1191 38.6573 64.0042C36.8827 64.6822 35.1421 65.401 33.4692 66.1537C14.4642 74.7043 4 86.5436 4 99.4542C4 113.904 17.3698 126.577 38.6573 134.918C38.366 136.796 38.1154 138.654 37.9326 140.478C35.8329 161.241 40.8314 176.226 52 182.682C55.8399 184.861 60.191 185.975 64.6045 185.909C75.1839 185.909 87.5377 180.336 99.9932 170.368C112.442 180.336 124.803 185.909 135.396 185.909C139.809 185.974 144.16 184.86 148 182.682C159.169 176.226 164.167 161.241 162.067 140.478C161.885 138.654 161.627 136.796 161.343 134.918C182.63 126.591 196 113.897 196 99.4542M135.314 22.153C138.152 22.0845 140.957 22.7725 143.442 24.1466C151.197 28.6287 154.678 40.7867 152.985 57.5014C152.87 58.6405 152.734 59.7933 152.572 60.9528C143.72 58.2841 134.656 56.3808 125.48 55.2637C119.917 47.8607 113.731 40.9484 106.99 34.6026C117.576 26.4114 127.512 22.153 135.307 22.153M131.67 117.762C128.245 123.715 124.515 129.486 120.495 135.053C113.681 135.754 106.836 136.103 99.9865 136.098C93.1392 136.102 86.2961 135.754 79.4847 135.053C75.4756 129.486 71.7568 123.714 68.3432 117.762C64.9179 111.827 61.8048 105.715 59.0168 99.4542C61.8048 93.193 64.9179 87.0819 68.3432 81.146C71.7514 75.2178 75.4588 69.467 79.4508 63.916C86.2747 63.1979 93.1317 62.8403 99.9932 62.8446C106.841 62.8405 113.683 63.189 120.495 63.8889C124.501 69.4484 128.222 75.2082 131.643 81.146C135.066 87.0833 138.179 93.1943 140.97 99.4542C138.179 105.714 135.066 111.825 131.643 117.762M145.629 110.982C147.779 116.85 149.544 122.852 150.912 128.951C144.973 130.804 138.919 132.265 132.788 133.324C135.118 129.807 137.375 126.148 139.561 122.346C141.721 118.59 143.747 114.799 145.657 111.009M100 158.4C95.4182 154.166 91.1194 149.636 87.1314 144.838C91.3442 145.096 95.645 145.245 100 145.245C104.355 145.245 108.683 145.096 112.902 144.838C108.902 149.636 104.592 154.166 100 158.4ZM67.2053 133.311C61.0727 132.257 55.0159 130.8 49.0741 128.951C50.4372 122.862 52.1951 116.869 54.3367 111.009C56.2196 114.799 58.2379 118.59 60.4323 122.346C62.6268 126.103 64.8957 129.805 67.2053 133.324M54.3367 87.8929C52.2028 82.0548 50.4494 76.0842 49.0876 70.0187C55.0147 68.1672 61.0553 66.7018 67.1714 65.6316C64.8551 69.1372 62.5861 72.7717 60.3985 76.5622C58.2108 80.3527 56.2128 84.0957 54.3028 87.8929M99.9594 40.5019C104.553 44.7341 108.863 49.2644 112.862 54.0635C108.649 53.8058 104.348 53.6567 99.9594 53.6567C95.6066 53.6567 91.3171 53.7923 87.0907 54.0635C91.0787 49.2655 95.3776 44.7352 99.9594 40.5019ZM139.547 76.5622C137.353 72.7559 135.084 69.0943 132.741 65.5773C138.887 66.6362 144.958 68.0995 150.912 69.9577C149.546 76.0456 147.788 82.0388 145.65 87.8997C143.767 84.1092 141.742 80.3188 139.554 76.569M47.0286 57.5082C45.3151 40.8003 48.8167 28.6355 56.565 24.1534C59.0506 22.7814 61.855 22.0936 64.6925 22.1598C72.4882 22.1598 82.4242 26.4182 93.0103 34.6094C86.2645 40.9597 80.0739 47.8765 74.5066 55.284C65.3326 56.4064 56.2697 58.3027 47.4147 60.9528C47.2589 59.7933 47.1167 58.6473 47.0083 57.5082M13.1435 99.4542C13.1435 90.49 21.9484 81.3969 37.2214 74.5008C38.2644 74.0488 39.3278 73.5967 40.4115 73.1447C42.5419 82.1432 45.4308 90.9445 49.047 99.4542C45.4239 107.981 42.5327 116.8 40.4047 125.818C23.1472 118.732 13.1435 108.913 13.1435 99.4542ZM56.565 174.755C48.8167 170.273 45.3151 158.108 47.0286 141.4C47.137 140.261 47.2792 139.115 47.435 137.949C56.2867 140.617 65.3505 142.52 74.5269 143.638C80.0915 151.044 86.2773 157.96 93.0171 164.313C78.2588 175.725 64.7738 179.488 56.5853 174.755M152.978 141.4C154.671 158.115 151.19 170.273 143.435 174.755C135.253 179.502 121.762 175.725 107.01 164.313C113.748 157.96 119.931 151.043 125.493 143.638C134.67 142.521 143.734 140.618 152.585 137.949C152.748 139.115 152.883 140.261 152.998 141.4M159.622 125.804C157.488 116.792 154.595 107.977 150.973 99.4542C154.593 90.9267 157.485 82.1072 159.616 73.0904C176.839 80.1764 186.87 89.995 186.87 99.4542C186.87 108.913 176.866 118.732 159.609 125.818" fill="#087EA4"/>
</g>
<defs>
<clipPath id="clip0_21_196">
<rect width="192" height="173" fill="white" transform="translate(4 13)"/>
</clipPath>
</defs>
</svg>
