<svg width="240" height="48" viewBox="0 0 240 48" fill="none" xmlns="http://www.w3.org/2000/svg">
<g clip-path="url(#clip0_2406_378)">
<path d="M86.689 16.7332C93.3763 16.7332 98.2426 21.3166 97.8973 29.6473H81.6119C82.22 31.9626 83.8448 33.952 87.0971 33.952C88.9181 33.952 90.582 33.4565 91.8379 31.9081H97.4578L97.3636 32.4036C96.3903 36.6464 91.4925 39 87.0971 39C80.1272 39 75.4492 34.3546 75.4492 27.8821C75.4492 21.4096 80.1272 16.7332 86.689 16.7332ZM133.814 16.7332C140.533 16.7332 145.368 21.3166 145.054 29.6473H128.764C129.365 31.9626 130.978 33.952 134.254 33.952C136.075 33.952 137.738 33.4565 138.963 31.9081H144.615L144.52 32.4036C143.547 36.6463 138.649 39 134.254 39C127.284 39 122.606 34.3547 122.606 27.8821C122.606 21.4096 127.284 16.7332 133.814 16.7332ZM194 38.3807H187.909L188.223 35.3767C187.375 37.1729 184.644 38.9381 181.222 38.9381C175.57 38.9381 170.987 34.6644 170.987 27.9131C170.987 21.1619 175.507 16.8881 181.222 16.8881C184.33 16.8881 186.245 17.8792 187.941 19.5825V8H194V38.3807ZM109.859 16.6094C114.82 16.6094 119.184 18.3746 120.44 22.7103L120.565 23.1749H114.38C113.062 21.5645 111.303 21.3476 109.859 21.3476C108.509 21.3476 106.374 21.6883 106.374 22.989C106.374 24.1968 107.787 24.5994 109.012 24.7542L112.591 25.1259C118.273 25.6214 120.785 27.8202 120.785 32.1249C120.785 37.0799 115.793 38.9381 110.864 38.9381C105.935 38.9381 100.817 36.7702 99.8439 32.3726L99.7497 31.9081H106.092C106.971 34.3857 111.021 34.1998 110.864 34.1998C113.25 34.1998 114.726 33.4875 114.726 32.3416C114.726 31.5984 114.474 30.7313 112.026 30.4216L108.289 30.0499C103.36 29.7093 100.378 27.1388 100.378 23.2986C100.378 18.5914 104.899 16.6094 109.859 16.6094ZM64.8375 8C70.8027 8 74.3505 11.4995 74.3505 16.1449C74.3505 20.7902 70.8027 24.2898 64.8375 24.2898H61.8235L76.7993 38.3807H66.219L54.8222 27.6964C54.006 26.9531 53.6292 26.086 53.6292 25.3427C53.6292 24.2898 54.3827 23.3607 55.8269 22.9581L61.698 21.4096C63.927 20.8212 65.4654 19.1179 65.4654 16.8881C65.4654 14.1629 63.2049 12.5834 60.4107 12.5834H46V8H64.8375ZM159.778 16.7641C165.116 16.7641 168.852 20.6043 168.852 26.0858V38.3806H162.761V27.1078C162.761 24.0109 161.097 22.1528 158.146 22.1528C155.195 22.1528 153.28 24.0728 153.28 27.1078V38.3806H147.314V17.1977H153.374L153.091 20.5734C153.97 18.8701 156.701 16.7641 159.778 16.7641ZM182.666 22.1529C178.993 22.1529 177.047 24.8472 177.047 27.9131C177.047 31.1958 179.244 33.7043 182.666 33.7043C185.963 33.7043 188.097 31.1649 188.097 27.9131C188.097 24.6614 186.025 22.1529 182.666 22.1529ZM86.689 21.5333C83.7211 21.5333 82.0254 23.2816 81.4992 25.6213H91.7714C91.7089 25.3519 91.6284 25.0639 91.5239 24.7542C90.7704 22.6483 89.0123 21.5334 86.689 21.5333ZM133.814 21.5333C130.872 21.5334 129.181 23.2816 128.656 25.6213H138.928C138.865 25.3519 138.785 25.0639 138.68 24.7542C137.927 22.6483 136.169 21.5333 133.814 21.5333Z" fill="black"/>
</g>
<defs>
<clipPath id="clip0_2406_378">
<rect width="148" height="31" fill="white" transform="translate(46 8)"/>
</clipPath>
</defs>
</svg>
