<svg width="240" height="48" viewBox="0 0 240 48" fill="none" xmlns="http://www.w3.org/2000/svg">
<g clip-path="url(#clip0_2406_424)">
<path d="M77.8051 18.3339C78.0606 17.9573 78.3403 17.9094 78.5672 17.9094C78.7941 17.9094 79.1721 17.9573 79.4277 18.3339C81.4417 21.1002 84.7661 26.6108 87.2184 30.6757C88.8176 33.3266 90.0459 35.3626 90.2979 35.6217C91.2439 36.5944 92.5413 35.9882 93.2952 34.8849C94.0374 33.7987 94.2434 33.036 94.2434 32.2223C94.2434 31.6681 83.4907 11.6701 82.4078 10.0055C81.3664 8.40441 81.0272 8 79.2448 8H77.911C76.1339 8 75.8771 8.40441 74.8356 10.0055C73.7528 11.6701 63 31.6681 63 32.2223C63 33.036 63.206 33.7987 63.9483 34.8849C64.7022 35.9882 65.9995 36.5944 66.9455 35.6217C67.1975 35.3626 68.4258 33.3266 70.0251 30.6757C72.4773 26.6108 75.7911 21.1002 77.8051 18.3339Z" fill="black"/>
<path d="M101.719 9.76758V34.3182H116.678V29.3379H106.88V24.1472H115.597V19.167H106.88V14.7478H116.678V9.76758H101.719Z" fill="black"/>
<path d="M136.64 34.3181L130.433 25.4097L136.221 17.0977H130.363L127.503 21.166L124.679 17.0977H118.751L124.539 25.4448L118.367 34.3181H124.225L127.468 29.6535L130.711 34.3181H136.64Z" fill="black"/>
<path d="M149.116 16.7471C146.745 16.7471 144.896 17.7291 143.711 19.5178V17.0978H138.794V40H143.711V31.8983C144.896 33.687 146.745 34.669 149.116 34.669C153.544 34.669 157.066 30.6357 157.066 25.6905C157.066 20.7453 153.544 16.7471 149.116 16.7471ZM148 29.9343C145.594 29.9343 143.711 28.1105 143.711 25.6905C143.711 23.3056 145.594 21.4468 148 21.4468C150.371 21.4468 152.289 23.3407 152.289 25.6905C152.289 28.0754 150.371 29.9343 148 29.9343Z" fill="black"/>
<path d="M167.791 16.7471C162.734 16.7471 158.898 20.605 158.898 25.7256C158.898 30.8461 162.734 34.669 167.791 34.669C172.812 34.669 176.683 30.8461 176.683 25.7256C176.683 20.605 172.812 16.7471 167.791 16.7471ZM167.791 21.4818C170.092 21.4818 171.871 23.2705 171.871 25.7256C171.871 28.1105 170.092 29.9343 167.791 29.9343C165.454 29.9343 163.711 28.1105 163.711 25.7256C163.711 23.2705 165.454 21.4818 167.791 21.4818Z" fill="black"/>
</g>
<defs>
<clipPath id="clip0_2406_424">
<rect width="114" height="32" fill="white" transform="translate(63 8)"/>
</clipPath>
</defs>
</svg>
