<svg width="240" height="48" viewBox="0 0 240 48" fill="none" xmlns="http://www.w3.org/2000/svg">
<mask id="mask0_2406_434" style="mask-type:luminance" maskUnits="userSpaceOnUse" x="28" y="9" width="184" height="29">
<path d="M212 9H28V37.99H212V9Z" fill="white"/>
</mask>
<g mask="url(#mask0_2406_434)">
<path d="M211.78 33.0733H207.351L202.531 25.3176L200.882 26.5011V33.0733H196.981V14.666H200.882V23.089L202.417 20.9235L207.401 14.666H211.73L205.312 22.812L211.78 33.0733Z" fill="black"/>
<path d="M195.487 23.6934C195.487 26.7235 194.623 29.0443 192.894 30.6559C191.175 32.2675 188.687 33.0733 185.431 33.0733H180.222V14.666H185.998C189.001 14.666 191.334 15.4592 192.995 17.0456C194.656 18.632 195.487 20.848 195.487 23.6934ZM191.435 23.7941C191.435 19.8407 189.69 17.864 186.199 17.864H184.123V29.8501H185.797C189.556 29.8501 191.435 27.8315 191.435 23.7941Z" fill="black"/>
<path d="M178.69 27.9613C178.69 29.6233 178.091 30.9327 176.891 31.8896C175.699 32.8465 174.038 33.3249 171.907 33.3249C169.944 33.3249 168.208 32.9555 166.697 32.217V28.5909C167.939 29.1448 168.988 29.5351 169.843 29.7618C170.707 29.9884 171.496 30.1017 172.209 30.1017C173.065 30.1017 173.72 29.938 174.172 29.6106C174.634 29.2833 174.865 28.7965 174.865 28.1502C174.865 27.7893 174.764 27.4703 174.563 27.1933C174.361 26.9079 174.064 26.6351 173.67 26.3749C173.283 26.1148 172.49 25.6993 171.291 25.1284C170.166 24.5997 169.323 24.0918 168.761 23.605C168.199 23.1182 167.75 22.5516 167.415 21.9053C167.079 21.259 166.912 20.5036 166.912 19.639C166.912 18.0106 167.461 16.7306 168.56 15.7989C169.667 14.8672 171.194 14.4014 173.141 14.4014C174.097 14.4014 175.008 14.5147 175.872 14.7413C176.744 14.968 177.655 15.2869 178.602 15.6982L177.344 18.7325C176.362 18.3296 175.549 18.0484 174.903 17.889C174.265 17.7294 173.636 17.6497 173.015 17.6497C172.277 17.6497 171.71 17.8218 171.316 18.1659C170.922 18.5101 170.724 18.9591 170.724 19.5131C170.724 19.8572 170.804 20.1594 170.964 20.4197C171.123 20.6714 171.375 20.9191 171.719 21.1624C172.071 21.3975 172.897 21.8255 174.198 22.4467C175.917 23.2693 177.097 24.096 177.734 24.927C178.372 25.7496 178.69 26.761 178.69 27.9613Z" fill="black"/>
<path d="M156.962 33.325C155.309 33.325 154.009 32.6829 153.061 31.3987C152.121 30.1144 151.651 28.335 151.651 26.0603C151.651 23.7521 152.129 21.9558 153.086 20.6716C154.051 19.379 155.376 18.7326 157.063 18.7326C158.833 18.7326 160.183 19.4209 161.115 20.7975H161.24C161.048 19.7483 160.951 18.8125 160.951 17.9899V13.4824H164.802V33.0732H161.857L161.115 31.2476H160.951C160.078 32.6326 158.749 33.325 156.962 33.325ZM158.309 30.2656C159.29 30.2656 160.007 29.9801 160.46 29.4094C160.922 28.8387 161.174 27.8692 161.216 26.501V26.0855C161.216 24.5747 160.98 23.4919 160.511 22.8371C160.049 22.1825 159.295 21.8551 158.246 21.8551C157.39 21.8551 156.723 22.2202 156.245 22.9505C155.775 23.6723 155.54 24.7258 155.54 26.1107C155.54 27.4956 155.779 28.5364 156.257 29.2331C156.735 29.9214 157.419 30.2656 158.309 30.2656Z" fill="black"/>
<path d="M140.897 26.0097C140.897 27.403 141.124 28.4565 141.577 29.1699C142.038 29.8834 142.785 30.2402 143.817 30.2402C144.84 30.2402 145.575 29.8876 146.02 29.1826C146.472 28.4691 146.699 27.4115 146.699 26.0097C146.699 24.6164 146.472 23.5714 146.02 22.8748C145.566 22.178 144.824 21.8297 143.792 21.8297C142.768 21.8297 142.03 22.178 141.577 22.8748C141.124 23.563 140.897 24.608 140.897 26.0097ZM150.625 26.0097C150.625 28.3012 150.021 30.0933 148.813 31.3859C147.605 32.6785 145.923 33.3248 143.767 33.3248C142.416 33.3248 141.225 33.0311 140.192 32.4435C139.161 31.8475 138.368 30.9956 137.814 29.8876C137.261 28.7797 136.983 27.487 136.983 26.0097C136.983 23.7099 137.583 21.922 138.783 20.6462C139.983 19.3703 141.67 18.7324 143.842 18.7324C145.193 18.7324 146.384 19.0262 147.416 19.6138C148.448 20.2013 149.241 21.0449 149.795 22.1445C150.349 23.244 150.625 24.5325 150.625 26.0097Z" fill="black"/>
<path d="M126.228 26.0097C126.228 27.403 126.455 28.4565 126.908 29.1699C127.369 29.8834 128.116 30.2402 129.148 30.2402C130.171 30.2402 130.906 29.8876 131.351 29.1826C131.803 28.4691 132.03 27.4115 132.03 26.0097C132.03 24.6164 131.803 23.5714 131.351 22.8748C130.897 22.178 130.155 21.8297 129.123 21.8297C128.1 21.8297 127.361 22.178 126.908 22.8748C126.455 23.563 126.228 24.608 126.228 26.0097ZM135.956 26.0097C135.956 28.3012 135.352 30.0933 134.144 31.3859C132.936 32.6785 131.254 33.3248 129.098 33.3248C127.747 33.3248 126.556 33.0311 125.524 32.4435C124.492 31.8475 123.699 30.9956 123.145 29.8876C122.591 28.7797 122.314 27.487 122.314 26.0097C122.314 23.7099 122.914 21.922 124.115 20.6462C125.314 19.3703 127.001 18.7324 129.173 18.7324C130.524 18.7324 131.715 19.0262 132.747 19.6138C133.779 20.2013 134.572 21.0449 135.126 22.1445C135.68 23.244 135.956 24.5325 135.956 26.0097Z" fill="black"/>
<path d="M114.468 33.0733L113.385 28.1504L111.951 21.9307H111.837L109.27 33.0733H105.142L101.141 18.9971H104.966L106.59 25.2293C106.774 25.968 107.03 27.5082 107.358 29.8501H107.458C107.492 29.2121 107.639 28.2007 107.899 26.8158L108.1 25.7456L109.837 18.9971H114.065L115.714 25.7456C115.814 26.2073 115.936 26.8871 116.079 27.7852C116.229 28.675 116.313 29.3633 116.33 29.8501H116.431C116.523 29.1031 116.653 28.2553 116.821 27.3068C116.989 26.35 117.131 25.6574 117.249 25.2293L118.935 18.9971H122.698L118.645 33.0733H114.468Z" fill="black"/>
<path d="M92.3362 33.325C90.6831 33.325 89.3829 32.6829 88.4348 31.3987C87.4951 30.1144 87.0254 28.335 87.0254 26.0603C87.0254 23.7521 87.5035 21.9558 88.46 20.6716C89.4249 19.379 90.7503 18.7326 92.4366 18.7326C94.2069 18.7326 95.5574 19.4209 96.4888 20.7975H96.6148C96.422 19.7483 96.3254 18.8125 96.3254 17.9899V13.4824H100.176V33.0732H97.2315L96.4888 31.2476H96.3254C95.4528 32.6326 94.1228 33.325 92.3362 33.325ZM93.6826 30.2656C94.6643 30.2656 95.3814 29.9801 95.8347 29.4094C96.296 28.8387 96.5476 27.8692 96.5896 26.501V26.0855C96.5896 24.5747 96.3548 23.4919 95.8847 22.8371C95.4234 22.1825 94.6685 21.8551 93.6196 21.8551C92.7638 21.8551 92.0967 22.2202 91.6187 22.9505C91.149 23.6723 90.9142 24.7258 90.9142 26.1107C90.9142 27.4956 91.1532 28.5364 91.6313 29.2331C92.1093 29.9214 92.7932 30.2656 93.6826 30.2656Z" fill="black"/>
<path d="M79.5105 21.4646C78.6968 21.4646 78.0591 21.7248 77.5978 22.2452C77.1366 22.7572 76.8723 23.4875 76.8051 24.4359H82.1911C82.1743 23.4875 81.9269 22.7572 81.4488 22.2452C80.9703 21.7248 80.3247 21.4646 79.5105 21.4646ZM80.052 33.3248C77.7865 33.3248 76.0166 32.6995 74.7412 31.4488C73.4658 30.1981 72.8281 28.4271 72.8281 26.1356C72.8281 23.777 73.4154 21.9556 74.59 20.6713C75.773 19.3787 77.405 18.7324 79.4857 18.7324C81.474 18.7324 83.0216 19.299 84.1294 20.4322C85.2368 21.5653 85.7905 23.1307 85.7905 25.1284V26.9917H76.7169C76.7589 28.0829 77.082 28.9349 77.6861 29.5477C78.2902 30.1604 79.1375 30.4668 80.228 30.4668C81.0754 30.4668 81.8765 30.3786 82.6318 30.2023C83.3867 30.0261 84.1752 29.7449 84.9977 29.3588V32.3301C84.3264 32.6659 83.6089 32.9135 82.8456 33.073C82.0823 33.2409 81.151 33.3248 80.052 33.3248Z" fill="black"/>
<path d="M63.1932 22.8372H64.4517C65.6849 22.8372 66.5952 22.6316 67.1825 22.2203C67.7698 21.809 68.0634 21.1627 68.0634 20.2813C68.0634 19.4084 67.7614 18.7873 67.1573 18.4179C66.5617 18.0487 65.6346 17.864 64.3761 17.864H63.1932V22.8372ZM63.1932 26.01V33.0733H59.292V14.666H64.653C67.1531 14.666 69.0031 15.1235 70.2029 16.0384C71.4027 16.9449 72.0026 18.3256 72.0026 20.1806C72.0026 21.2634 71.7047 22.2287 71.109 23.0764C70.5133 23.9158 69.67 24.5747 68.5794 25.0532L73.9909 33.0733H69.6616L65.2697 26.01H63.1932Z" fill="black"/>
<path d="M41.7719 9.10833C41.5483 8.96389 41.2608 8.96389 41.0372 9.10833L28.8296 16.9935C28.6321 17.1167 28.5107 17.3337 28.5107 17.5684V29.2394C28.5107 29.4695 28.6274 29.6838 28.8207 29.8086L41.0372 37.6995C41.2608 37.8439 41.5483 37.8439 41.7719 37.6995L53.9885 29.8086C54.1817 29.6838 54.2985 29.4695 54.2985 29.2394V17.5702C54.299 17.3354 54.1781 17.1173 53.9796 16.9935L41.7719 9.10833Z" fill="black"/>
<path d="M52.9625 18.7783V28.0303L48.7266 25.2943L50.7958 23.9577C50.9837 23.8364 51.0971 23.6279 51.0971 23.4043C51.0971 23.1806 50.9837 22.9722 50.7958 22.8508L48.7266 21.5143L52.9625 18.7783Z" fill="#E73C36"/>
<path d="M29.8467 18.7783V28.0303L34.0826 25.2943L32.0133 23.9577C31.8255 23.8364 31.712 23.6279 31.712 23.4043C31.712 23.1806 31.8255 22.9722 32.0133 22.8508L34.0825 21.5143L29.8467 18.7783Z" fill="#E73C36"/>
<path d="M41.4051 16.7846L36.5107 13.6232L41.4051 10.4619L46.2994 13.6232L41.4051 16.7846Z" fill="#FFAD48"/>
<path d="M41.4051 36.3461L36.5107 33.1847L41.4051 30.0234L46.2994 33.1847L41.4051 36.3461Z" fill="#FFAD48"/>
<path d="M35.3094 32.3939L30.415 29.2326L35.3094 26.0713L40.2038 29.2326L35.3094 32.3939Z" fill="#F47238"/>
<path d="M35.3094 20.7299L30.415 17.5686L35.3094 14.4072L40.2038 17.5686L35.3094 20.7299Z" fill="#F47238"/>
<path d="M47.4999 32.3939L42.6055 29.2326L47.4999 26.0713L52.3942 29.2326L47.4999 32.3939Z" fill="#F47238"/>
<path d="M47.4999 20.7299L42.6055 17.5686L47.4999 14.4072L52.3942 17.5686L47.4999 20.7299Z" fill="#F47238"/>
<path d="M41.4044 28.4551L33.584 23.4038C36.1908 21.7199 38.7976 20.0363 41.4044 18.3525C44.0112 20.0363 46.618 21.72 49.2248 23.4038L41.4044 28.4551Z" fill="#8B2343"/>
</g>
</svg>
