<svg width="240" height="48" viewBox="0 0 240 48" fill="none" xmlns="http://www.w3.org/2000/svg">
<g clip-path="url(#clip0_2406_386)">
<mask id="mask0_2406_386" style="mask-type:luminance" maskUnits="userSpaceOnUse" x="43" y="8" width="154" height="32">
<path d="M197 8H43V40H197V8Z" fill="white"/>
</mask>
<g mask="url(#mask0_2406_386)">
<path d="M43 8.85288C44.4859 8.52298 46.785 8.33008 48.8589 8.33008C54.4642 8.33008 57.8302 10.1454 57.8302 14.7649C57.8302 17.597 56.5952 19.4674 54.6628 20.485L59.3408 27.9095C58.976 28.1575 58.1912 28.2944 57.0977 28.2944C55.8627 28.2944 55.0513 28.1575 54.4623 27.9095L50.5671 21.4747H50.1253C49.1753 21.4747 47.9108 21.3918 47.2382 21.2818V27.9365C46.8458 28.1564 46.1447 28.2944 45.1357 28.2944C44.1543 28.2944 43.4256 28.1575 43.0057 27.9365L43 8.85288ZM47.2049 12.0428V17.7899C48.0019 17.9191 48.8083 17.9837 49.6161 17.9828C52.0549 17.9828 53.5455 17.1329 53.5455 14.9895C53.5455 12.7893 51.976 11.8825 49.1753 11.8825C48.515 11.8784 47.8555 11.9321 47.2049 12.0428Z" fill="#F2545B"/>
<path d="M64.7559 22.6315C64.9239 24.5568 66.3253 25.4915 69.1013 25.4915C70.896 25.4915 72.4654 25.1067 73.4715 24.6668C73.5552 25.7115 73.1067 27.059 72.4625 27.7738C71.5373 28.2966 69.9678 28.7365 68.0334 28.7365C63.1275 28.7365 60.5205 25.9594 60.5205 21.5039C60.5205 16.9114 63.3241 13.9414 67.7256 13.9414C71.8185 13.9414 73.6967 16.4166 73.6967 20.0464C73.6938 20.9242 73.5523 21.7963 73.2768 22.6315H64.7559ZM69.8861 19.7426C70.1102 18.313 69.5772 16.9105 67.5595 16.9105C65.8208 16.9105 64.7559 18.0101 64.6438 19.7426H69.8861Z" fill="#F2545B"/>
<path d="M82.3889 25.2145C82.5837 24.0164 82.8554 22.8315 83.2021 21.6668L85.3321 14.5721C85.6408 14.4622 86.1169 14.3242 87.0147 14.3242C88.1643 14.3242 88.9489 14.5442 89.4534 14.874L85.0243 27.9096C83.5385 28.3224 81.4635 28.4595 79.4732 28.4595L74.876 14.875C75.3805 14.5451 76.1651 14.3252 77.3461 14.3252C78.1868 14.3252 78.7712 14.4622 79.0286 14.5731L81.2992 21.6677C81.6677 22.8304 81.9582 24.0155 82.1684 25.2155L82.3889 25.2145Z" fill="#F2545B"/>
<path d="M94.668 22.6315C94.8361 24.5568 96.2374 25.4915 99.0134 25.4915C100.808 25.4915 102.378 25.1067 103.384 24.6668C103.467 25.7115 103.019 27.059 102.375 27.7738C101.449 28.2966 99.8799 28.7365 97.9455 28.7365C93.0396 28.7365 90.4326 25.9594 90.4326 21.5039C90.4326 16.9114 93.2362 13.9414 97.6377 13.9414C101.731 13.9414 103.609 16.4166 103.609 20.0464C103.606 20.9241 103.466 21.7961 103.191 22.6315H94.668ZM99.7982 19.7426C100.022 18.313 99.4895 16.9105 97.4716 16.9105C95.733 16.9105 94.668 18.0101 94.5559 19.7426H99.7982Z" fill="#F2545B"/>
<path d="M110.816 27.9649C110.451 28.1577 109.779 28.2946 108.797 28.2946C107.816 28.2946 107.143 28.1577 106.751 27.9649V14.8481C107.511 14.4353 108.714 14.2153 110.059 14.2153L110.283 16.4706H110.508C111.18 15.041 112.61 13.9404 115.163 13.9404C117.294 13.9404 119.818 14.686 119.818 19.2206V27.9657C119.453 28.1586 118.781 28.2955 117.799 28.2955C116.818 28.2955 116.145 28.1586 115.753 27.9657V19.9354C115.753 18.5059 115.248 17.5982 113.594 17.5982C112.137 17.5982 111.324 18.313 110.819 19.1657L110.816 27.9649Z" fill="#F2545B"/>
<path d="M132.516 26.5345C131.899 27.7722 130.581 28.7349 128.114 28.7349C125.929 28.7349 123.459 27.9892 123.459 23.4229V15.0357C124.409 14.5129 125.758 14.2109 127.524 14.2109V22.7361C127.524 24.2206 127.999 25.0463 129.627 25.0463C130.944 25.0463 131.812 24.4965 132.318 23.8637V14.7095C132.711 14.5166 133.383 14.3796 134.364 14.3796C135.346 14.3796 136.018 14.5176 136.383 14.7095V27.8271C135.655 28.2399 134.505 28.4598 133.216 28.4598L132.741 26.5345H132.516Z" fill="#F2545B"/>
<path d="M143.673 22.6315C143.841 24.5568 145.242 25.4915 148.018 25.4915C149.813 25.4915 151.382 25.1067 152.389 24.6668C152.472 25.7115 152.024 27.059 151.38 27.7738C150.454 28.2966 148.885 28.7365 146.95 28.7365C142.044 28.7365 139.438 25.9594 139.438 21.5039C139.438 16.9114 142.241 13.9414 146.643 13.9414C150.735 13.9414 152.614 16.4166 152.614 20.0464C152.61 20.9242 152.469 21.7963 152.193 22.6315H143.673ZM148.803 19.7426C149.027 18.313 148.494 16.9105 146.476 16.9105C144.738 16.9105 143.673 18.0101 143.561 19.7426H148.803Z" fill="#F2545B"/>
<path d="M166.185 11.6578C162.232 11.6578 159.513 13.6381 159.513 18.4225C159.513 23.2069 162.204 25.1052 165.988 25.1052C167.604 25.09 169.202 24.7737 170.698 24.1733C170.754 25.191 170.249 26.9504 169.577 27.8311C168.371 28.4089 166.631 28.8208 164.671 28.8208C158.671 28.8208 155.139 25.026 155.139 18.7011C155.14 11.8777 159.26 8 165.316 8C166.914 8 168.539 8.27957 169.577 8.87972C170.222 9.78741 170.502 11.4099 170.361 12.6195C169.016 11.9876 167.783 11.6578 166.185 11.6578Z" fill="#F2545B"/>
<path d="M180.651 26.755C180.035 27.9665 178.717 28.7354 176.783 28.7354C174.313 28.7354 172.186 27.5239 172.186 24.3358C172.186 20.9809 174.656 19.6884 177.905 19.6884C178.769 19.6779 179.629 19.7986 180.456 20.0462V19.6614C180.456 17.9839 179.615 17.3791 177.764 17.3791C176.193 17.3781 174.647 17.7748 173.278 18.5309C172.942 17.4583 173.081 15.7538 173.726 14.8462C174.736 14.2963 176.474 13.9385 178.549 13.9385C182.586 13.9385 184.52 15.3363 184.52 19.4107V24.1681C184.52 25.0208 184.912 25.2128 185.47 25.2128C185.896 25.2202 186.315 25.1055 186.675 24.8829C186.788 25.9825 186.451 27.3301 185.947 28.0999C185.358 28.4848 184.573 28.7326 183.62 28.7326C181.995 28.7326 181.15 28.0448 180.873 26.7523L180.651 26.755ZM180.539 22.6854C179.95 22.4602 179.321 22.3482 178.688 22.3555C177.063 22.3555 176.25 23.0153 176.25 24.0609C176.25 25.1335 177.063 25.5184 178.184 25.5184C179.081 25.5184 179.979 25.2388 180.539 24.5558V22.6854Z" fill="#F2545B"/>
<path d="M193.048 17.8786H196.791C196.96 17.5468 197.044 16.8535 197.044 16.1629C197.044 15.4724 196.96 14.78 196.791 14.4473H193.048V10.3506C191.472 10.3786 189.982 10.7383 188.968 11.4568V14.4445H187.364C186.998 15.3298 186.802 16.6811 186.802 17.8749H188.969L188.914 27.5946C188.914 28.6654 188.724 30.0344 188.1 30.4641C185.129 32.5264 179.086 31.5283 173.542 30.9626C165.577 30.15 158.698 29.0821 157.555 33.4051C156.95 35.6892 157.735 37.1486 158.498 37.9715C160.032 39.6238 162.74 40.0003 164.889 40.0003C165.899 39.9992 166.908 39.9216 167.906 39.7683C168.415 39.6872 168.869 39.4117 169.17 39.0021C169.471 38.5925 169.594 38.0824 169.512 37.5838C169.341 36.5457 168.339 35.8133 167.286 36.0053C165.077 36.4097 161.959 37.3098 160.763 36.0211C160.358 35.5859 160.429 34.5169 160.763 34.1861C161.652 32.8814 167.376 33.38 173.139 34.1432C179.505 34.7955 186.095 35.7098 189.837 33.8739C191.302 33.1553 193.048 31.4826 193.048 27.5946V17.8786Z" fill="#F2545B"/>
</g>
</g>
<defs>
<clipPath id="clip0_2406_386">
<rect width="154" height="32" fill="white" transform="translate(43 8)"/>
</clipPath>
</defs>
</svg>
