<svg width="240" height="48" viewBox="0 0 240 48" fill="none" xmlns="http://www.w3.org/2000/svg">
<path d="M72.5894 16.7322L61.7511 10.4366C61.4178 10.2429 61 10.4834 61 10.8689V28.4132C61 28.5905 61.0939 28.7546 61.2468 28.8444L65.2968 31.2229C65.6301 31.4186 66.05 31.1783 66.05 30.7917V19.3429C66.05 19.1892 66.2161 19.093 66.3494 19.1693L72.5961 22.7462C73.2172 23.1019 73.9809 23.0985 74.5988 22.7375L80.6991 19.1737C80.8324 19.0958 81 19.1901 81 19.3446V24.94C81 25.2878 80.8194 25.6109 80.523 25.7928L74.2385 29.6489C74.0903 29.7398 74 29.9012 74 30.0751V35.7245C74 35.8961 74.088 36.0556 74.233 36.1473L82.4644 41.3461C83.1 41.7474 83.9069 41.7586 84.5532 41.3749L95.0208 35.1619C95.6279 34.8016 96 34.1479 96 33.442V22.6274C96 22.2384 95.5752 21.9984 95.242 22.1991L91.928 24.1955C91.3273 24.5574 90.96 25.2074 90.96 25.9087V31.3291C90.96 31.5062 90.8663 31.6701 90.7137 31.76L84.5225 35.4061C83.8921 35.7773 83.1094 35.7748 82.4815 35.3995L79.1504 33.4085C78.8341 33.2194 78.824 32.7648 79.1317 32.5619L85.151 28.5929C85.7122 28.2228 86.05 27.5955 86.05 26.9232V10.874C86.05 10.4873 85.6299 10.247 85.2966 10.443L74.6075 16.7269C73.9851 17.0928 73.2137 17.0948 72.5894 16.7322Z" fill="#0073E6"/>
<path d="M96 11.363V14.7769C96 15.4674 95.6439 16.109 95.0579 16.4742L91.7645 18.527C91.4314 18.7346 91 18.4952 91 18.1027V14.5246C91 13.8078 91.3836 13.1458 92.0056 12.7894L95.2514 10.9292C95.5847 10.7382 96 10.9789 96 11.363Z" fill="#0073E6"/>
<path d="M111.38 32.4998V14.2998H115.878L123.444 24.8038L120.116 24.7778L127.708 14.2998H132.154V32.4998H127.188V27.4818C127.188 25.9911 127.223 24.6218 127.292 23.3738C127.361 22.1085 127.5 20.8345 127.708 19.5518L128.228 21.1638L122.586 28.4438H120.87L115.254 21.0858L115.826 19.5518C116.034 20.7998 116.173 22.0478 116.242 23.2958C116.311 24.5438 116.346 25.9391 116.346 27.4818V32.4998H111.38ZM146.261 32.6558C144.493 32.6558 142.925 32.3091 141.555 31.6158C140.203 30.9225 139.146 29.9605 138.383 28.7298C137.638 27.4991 137.265 26.1038 137.265 24.5438V14.2998H142.465V24.3878C142.465 25.1505 142.63 25.8178 142.959 26.3898C143.289 26.9618 143.739 27.4038 144.311 27.7158C144.883 28.0278 145.533 28.1838 146.261 28.1838C147.024 28.1838 147.7 28.0278 148.289 27.7158C148.896 27.4038 149.364 26.9618 149.693 26.3898C150.04 25.8178 150.213 25.1505 150.213 24.3878V14.2998H155.257V24.5438C155.257 26.1038 154.876 27.4991 154.113 28.7298C153.368 29.9605 152.319 30.9225 150.967 31.6158C149.633 32.3091 148.064 32.6558 146.261 32.6558ZM160.672 32.4998V28.1838H164.858V18.6158H160.672V14.2998H174.166V18.6158H170.006V28.1838H174.166V32.4998H160.672Z" fill="#090B0B"/>
</svg>
