<svg width="240" height="48" viewBox="0 0 240 48" fill="none" xmlns="http://www.w3.org/2000/svg">
<g clip-path="url(#clip0_2406_303)">
<path d="M165.703 36.0017L172.07 36.0126H175.708V32.386L179.339 28.7594L165.703 28.7168V36.0017ZM174.799 25.1329H182.985L186.623 25.1347V21.5063L190.261 17.8797H174.799V25.1329ZM170.251 7H197.537V14.2531H170.251V7Z" fill="#B4BBBF"/>
<path d="M172.07 36.0214L175.709 32.3857H188.442V39.6389H172.07V36.0214Z" fill="#FF0000"/>
<path d="M199.356 28.7594V21.5107H186.623L179.339 28.7594H199.356Z" fill="#FF8B00"/>
<path d="M213 10.627H197.537L190.261 17.8801H213V10.627Z" fill="#55B2C6"/>
<path d="M154.774 13.8906V39.6547H150.437L150.321 36.9457C149.688 37.8645 148.859 38.6321 147.893 39.1932C146.91 39.7118 145.695 40.0001 144.307 40.0001C143.093 40.0001 141.937 39.7698 140.954 39.3664C139.913 38.9049 138.987 38.3292 138.236 37.5223C137.454 36.6883 136.845 35.7089 136.443 34.6401C135.981 33.5448 135.808 32.2773 135.808 30.8938C135.808 29.5103 136.039 28.2428 136.443 27.0895C136.906 25.9372 137.485 24.9571 138.236 24.1502C138.987 23.3433 139.913 22.7095 140.954 22.2481C141.994 21.7866 143.093 21.5563 144.307 21.5563C145.695 21.5563 146.851 21.7866 147.835 22.3061C148.818 22.8247 149.627 23.5165 150.263 24.4956V13.9487H154.774V13.8906ZM145.291 36.1387C146.794 36.1387 147.95 35.6201 148.875 34.6401C149.8 33.66 150.263 32.3345 150.263 30.7206C150.263 29.1068 149.8 27.8384 148.875 26.8012C147.95 25.8211 146.794 25.3025 145.291 25.3025C143.844 25.3025 142.63 25.8211 141.763 26.8012C140.838 27.7813 140.375 29.1068 140.375 30.7206C140.375 32.3345 140.838 33.6029 141.763 34.582C142.688 35.6201 143.844 36.1387 145.291 36.1387Z" fill="#003264"/>
<path fill-rule="evenodd" clip-rule="evenodd" d="M128.477 13.8906H132.987V19.1936H128.477V13.8906ZM128.477 21.8446H132.987V39.6547H128.477V21.8446Z" fill="#003264"/>
<path d="M119.166 24.2068C120.612 22.0743 124.255 21.8441 125.759 21.8441V25.9938C123.908 25.9938 122.058 26.0518 120.959 26.8587C119.86 27.6656 119.283 28.7608 119.283 30.0864V39.6542H114.772V21.8441H119.109L119.166 24.2068ZM44.272 34.8127H32.939L30.9725 39.6542H26L36.4662 15.2156H40.8029L51.2682 39.6542H46.2375L44.272 34.8127ZM42.7103 30.9504L38.6055 20.9791L34.4998 30.9504H42.7103ZM76.5929 25.7254H65.4181V29.594H71.7513C71.5521 31.5334 70.8227 33.081 69.5629 34.2388C68.3032 35.3957 66.6451 35.9741 64.5886 35.9741C63.4171 35.9741 62.3502 35.7647 61.3888 35.3458C60.4467 34.9411 59.6037 34.338 58.9176 33.5778C58.2327 32.8172 57.7015 31.9024 57.3267 30.8334C56.9502 29.7645 56.7628 28.5795 56.7628 27.2794C56.7628 25.9802 56.9502 24.7961 57.3267 23.7262C57.7015 22.6582 58.2327 21.7434 58.9176 20.9827C59.6072 20.2198 60.456 19.6164 61.4043 19.2148C62.3775 18.7959 63.4489 18.5865 64.6223 18.5865C67.0498 18.5865 68.8935 19.1686 70.1532 20.3336L73.1402 17.3544C70.8791 15.6009 68.0194 14.7188 64.5549 14.7188C62.6322 14.7188 60.8958 15.0216 59.3496 15.6272C57.8006 16.2338 56.4745 17.0824 55.3694 18.1722C54.2634 19.2638 53.413 20.5811 52.8163 22.1224C52.2187 23.6655 51.9204 25.3854 51.9204 27.2794C51.9204 29.1525 52.2242 30.867 52.8327 32.4201C53.4402 33.974 54.297 35.2968 55.4021 36.3866C56.5082 37.4782 57.8334 38.3259 59.3814 38.9325C60.9295 39.5381 62.6531 39.8409 64.5549 39.8409C66.4123 39.8409 68.0867 39.5381 69.5793 38.9325C71.071 38.3259 72.3425 37.4782 73.3931 36.3866C74.4427 35.2968 75.2504 33.974 75.8134 32.4201C76.3782 30.867 76.6593 29.1525 76.6593 27.2794C76.6593 27.0156 76.6529 26.7563 76.6438 26.5033C76.6311 26.2494 76.6147 25.991 76.5929 25.7254ZM111.854 25.7254H100.68V29.594H107.013C106.814 31.5334 106.084 33.081 104.824 34.2388C103.565 35.3957 101.907 35.9741 99.8501 35.9741C98.6786 35.9741 97.6117 35.7647 96.6503 35.3458C95.7082 34.9411 94.8652 34.338 94.179 33.5778C93.4941 32.8172 92.9629 31.9024 92.5882 30.8334C92.2117 29.7645 92.0243 28.5795 92.0243 27.2794C92.0243 25.9802 92.2117 24.7961 92.5882 23.7262C92.9629 22.6582 93.4941 21.7434 94.179 20.9827C94.8689 20.2195 95.7179 19.6161 96.6666 19.2148C97.6389 18.7959 98.7104 18.5865 99.8837 18.5865C102.311 18.5865 104.156 19.1686 105.415 20.3336L108.402 17.3544C106.141 15.6009 103.281 14.7188 99.8173 14.7188C97.8936 14.7188 96.1573 15.0216 94.6111 15.6272C93.0621 16.2338 91.736 17.0824 90.6309 18.1722C89.5248 19.2638 88.6744 20.5811 88.0777 22.1224C87.4802 23.6655 87.1818 25.3854 87.1818 27.2794C87.1818 29.1525 87.4856 30.867 88.0941 32.4201C88.7017 33.974 89.5585 35.2968 90.6636 36.3866C91.7696 37.4782 93.0948 38.3259 94.6429 38.9325C96.1909 39.5381 97.9145 39.8409 99.8173 39.8409C101.674 39.8409 103.349 39.5381 104.841 38.9325C106.332 38.3259 107.604 37.4782 108.655 36.3866C109.704 35.2968 110.512 33.974 111.075 32.4201C111.64 30.867 111.921 29.1525 111.921 27.2794C111.921 27.0156 111.914 26.7563 111.905 26.5033C111.893 26.2494 111.876 25.991 111.854 25.7254Z" fill="#003264"/>
</g>
<defs>
<clipPath id="clip0_2406_303">
<rect width="187" height="33" fill="white" transform="translate(26 7)"/>
</clipPath>
</defs>
</svg>
