<svg width="240" height="48" viewBox="0 0 240 48" fill="none" xmlns="http://www.w3.org/2000/svg">
<g clip-path="url(#clip0_2406_405)">
<path fill-rule="evenodd" clip-rule="evenodd" d="M82.4977 36.9777L66.7488 10.0127L51 36.9777H82.4977ZM98.3826 35.7503L111.544 11.2384H105.851L96.7722 29.0398L87.6931 11.2384H82.0002L95.1617 35.7503H98.3826ZM188.078 11.2384V35.7503H183.365V11.2384H188.078ZM161.843 26.6014C161.843 24.6911 162.248 23.0109 163.058 21.5609C163.868 20.1109 164.998 18.9947 166.446 18.2121C167.894 17.4296 169.588 17.0383 171.527 17.0383C173.245 17.0383 174.792 17.4066 176.166 18.1431C177.541 18.8796 178.633 19.9728 179.443 21.4228C180.253 22.8729 180.671 24.645 180.695 26.7395V27.8097H166.814C166.912 29.3288 167.366 30.5256 168.176 31.4002C169.011 32.2518 170.128 32.6776 171.527 32.6776C172.41 32.6776 173.221 32.4474 173.957 31.9871C174.693 31.5268 175.246 30.9054 175.614 30.1229L180.438 30.4681C179.848 32.1942 178.744 33.5752 177.124 34.6109C175.503 35.6466 173.638 36.1645 171.527 36.1645C169.588 36.1645 167.894 35.7732 166.446 34.9907C164.998 34.2082 163.868 33.0919 163.058 31.6419C162.248 30.1919 161.843 28.5117 161.843 26.6014ZM175.835 24.8752C175.663 23.3792 175.185 22.286 174.399 21.5954C173.613 20.882 172.656 20.5252 171.527 20.5252C170.226 20.5252 169.171 20.905 168.361 21.6645C167.55 22.424 167.047 23.4943 166.851 24.8752H175.835ZM153.891 21.5954C154.677 22.2169 155.167 23.08 155.364 24.1847L160.223 23.943C160.052 22.5391 159.549 21.3193 158.714 20.2835C157.879 19.2478 156.8 18.4538 155.474 17.9014C154.173 17.326 152.737 17.0383 151.166 17.0383C149.227 17.0383 147.533 17.4296 146.085 18.2121C144.637 18.9947 143.507 20.1109 142.697 21.5609C141.887 23.0109 141.482 24.6911 141.482 26.6014C141.482 28.5117 141.887 30.1919 142.697 31.6419C143.507 33.0919 144.637 34.2082 146.085 34.9907C147.533 35.7732 149.227 36.1645 151.166 36.1645C152.786 36.1645 154.259 35.8768 155.584 35.3014C156.91 34.703 157.99 33.8629 158.825 32.7811C159.66 31.6994 160.162 30.4335 160.334 28.9836L155.437 28.7764C155.265 29.9962 154.786 30.9399 154.001 31.6073C153.216 32.2518 152.27 32.574 151.166 32.574C149.644 32.574 148.466 32.0562 147.631 31.0204C146.797 29.9847 146.38 28.5117 146.38 26.6014C146.38 24.6911 146.797 23.2181 147.631 22.1823C148.466 21.1467 149.644 20.6288 151.166 20.6288C152.222 20.6288 153.129 20.951 153.891 21.5954ZM129.983 17.4518H134.369L134.495 20.9734C134.807 19.9766 135.239 19.2025 135.794 18.6511C136.598 17.8516 137.719 17.4518 139.156 17.4518H140.947V21.2212H139.12C138.096 21.2212 137.256 21.3582 136.598 21.6323C135.964 21.9064 135.477 22.3405 135.136 22.9345C134.82 23.5284 134.661 24.2823 134.661 25.1961V35.7503H129.983V17.4518ZM109.753 21.5609C108.943 23.0109 108.538 24.6911 108.538 26.6014C108.538 28.5117 108.943 30.1919 109.753 31.6419C110.563 33.0919 111.692 34.2082 113.14 34.9907C114.589 35.7732 116.282 36.1645 118.221 36.1645C120.332 36.1645 122.198 35.6466 123.818 34.6109C125.438 33.5752 126.543 32.1942 127.132 30.4681L122.309 30.1229C121.941 30.9054 121.388 31.5268 120.652 31.9871C119.915 32.4474 119.105 32.6776 118.221 32.6776C116.822 32.6776 115.705 32.2518 114.871 31.4002C114.061 30.5256 113.607 29.3288 113.508 27.8097H127.39V26.7395C127.365 24.645 126.948 22.8729 126.138 21.4228C125.328 19.9728 124.236 18.8796 122.861 18.1431C121.486 17.4066 119.94 17.0383 118.221 17.0383C116.282 17.0383 114.589 17.4296 113.14 18.2121C111.692 18.9947 110.563 20.1109 109.753 21.5609ZM121.094 21.5954C121.879 22.286 122.358 23.3792 122.53 24.8752H113.545C113.742 23.4943 114.245 22.424 115.055 21.6645C115.865 20.905 116.92 20.5252 118.221 20.5252C119.35 20.5252 120.308 20.882 121.094 21.5954Z" fill="black"/>
</g>
<defs>
<clipPath id="clip0_2406_405">
<rect width="138" height="27" fill="white" transform="translate(51 10)"/>
</clipPath>
</defs>
</svg>
