<svg width="240" height="48" viewBox="0 0 240 48" fill="none" xmlns="http://www.w3.org/2000/svg">
<g clip-path="url(#clip0_2406_386)">
<mask id="mask0_2406_386" style="mask-type:luminance" maskUnits="userSpaceOnUse" x="43" y="10" width="154" height="32">
<path d="M197 10H43V42H197V10Z" fill="white"/>
</mask>
<g mask="url(#mask0_2406_386)">
<path d="M43 10.8529C44.4859 10.523 46.785 10.3301 48.8589 10.3301C54.4642 10.3301 57.8302 12.1454 57.8302 16.7649C57.8302 19.597 56.5952 21.4674 54.6628 22.485L59.3408 29.9095C58.976 30.1575 58.1912 30.2944 57.0977 30.2944C55.8627 30.2944 55.0513 30.1575 54.4623 29.9095L50.5671 23.4747H50.1253C49.1753 23.4747 47.9108 23.3918 47.2382 23.2818V29.9365C46.8458 30.1565 46.1447 30.2944 45.1357 30.2944C44.1543 30.2944 43.4256 30.1575 43.0057 29.9365L43 10.8529ZM47.2049 14.0428V19.7899C48.0019 19.9191 48.8083 19.9837 49.6161 19.9828C52.0549 19.9828 53.5455 19.1329 53.5455 16.9895C53.5455 14.7893 51.976 13.8825 49.1753 13.8825C48.515 13.8784 47.8555 13.9321 47.2049 14.0428Z" fill="#F2545B"/>
<path d="M64.7559 24.6315C64.9239 26.5568 66.3253 27.4915 69.1013 27.4915C70.896 27.4915 72.4654 27.1067 73.4715 26.6668C73.5552 27.7115 73.1067 29.059 72.4625 29.7738C71.5373 30.2966 69.9678 30.7365 68.0334 30.7365C63.1275 30.7365 60.5205 27.9594 60.5205 23.5039C60.5205 18.9114 63.3241 15.9414 67.7256 15.9414C71.8185 15.9414 73.6967 18.4166 73.6967 22.0464C73.6938 22.9242 73.5523 23.7963 73.2768 24.6315H64.7559ZM69.8861 21.7426C70.1102 20.313 69.5772 18.9105 67.5595 18.9105C65.8208 18.9105 64.7559 20.0101 64.6438 21.7426H69.8861Z" fill="#F2545B"/>
<path d="M82.3889 27.2145C82.5837 26.0164 82.8554 24.8315 83.2021 23.6668L85.3321 16.5721C85.6408 16.4622 86.1169 16.3242 87.0147 16.3242C88.1643 16.3242 88.9489 16.5442 89.4534 16.874L85.0243 29.9096C83.5385 30.3224 81.4635 30.4595 79.4732 30.4595L74.876 16.875C75.3805 16.5451 76.1651 16.3252 77.3461 16.3252C78.1868 16.3252 78.7712 16.4622 79.0286 16.5731L81.2992 23.6677C81.6677 24.8304 81.9582 26.0155 82.1684 27.2155L82.3889 27.2145Z" fill="#F2545B"/>
<path d="M94.668 24.6315C94.8361 26.5568 96.2374 27.4915 99.0134 27.4915C100.808 27.4915 102.378 27.1067 103.384 26.6668C103.467 27.7115 103.019 29.059 102.375 29.7738C101.449 30.2966 99.8799 30.7365 97.9455 30.7365C93.0396 30.7365 90.4326 27.9594 90.4326 23.5039C90.4326 18.9114 93.2362 15.9414 97.6377 15.9414C101.731 15.9414 103.609 18.4166 103.609 22.0464C103.606 22.9241 103.466 23.7961 103.191 24.6315H94.668ZM99.7982 21.7426C100.022 20.313 99.4895 18.9105 97.4716 18.9105C95.733 18.9105 94.668 20.0101 94.5559 21.7426H99.7982Z" fill="#F2545B"/>
<path d="M110.816 29.9649C110.451 30.1577 109.779 30.2946 108.797 30.2946C107.816 30.2946 107.143 30.1577 106.751 29.9649V16.8481C107.511 16.4353 108.714 16.2153 110.059 16.2153L110.283 18.4706H110.508C111.18 17.041 112.61 15.9404 115.163 15.9404C117.294 15.9404 119.818 16.686 119.818 21.2206V29.9657C119.453 30.1586 118.781 30.2955 117.799 30.2955C116.818 30.2955 116.145 30.1586 115.753 29.9657V21.9354C115.753 20.5059 115.248 19.5982 113.594 19.5982C112.137 19.5982 111.324 20.313 110.819 21.1657L110.816 29.9649Z" fill="#F2545B"/>
<path d="M132.516 28.5345C131.899 29.7722 130.581 30.7348 128.114 30.7348C125.929 30.7348 123.459 29.9892 123.459 25.4229V17.0357C124.409 16.5129 125.758 16.2109 127.524 16.2109V24.7361C127.524 26.2206 127.999 27.0463 129.627 27.0463C130.944 27.0463 131.812 26.4965 132.318 25.8637V16.7095C132.711 16.5166 133.383 16.3796 134.364 16.3796C135.346 16.3796 136.018 16.5176 136.383 16.7095V29.8271C135.655 30.2399 134.505 30.4598 133.216 30.4598L132.741 28.5345H132.516Z" fill="#F2545B"/>
<path d="M143.673 24.6315C143.841 26.5568 145.242 27.4915 148.018 27.4915C149.813 27.4915 151.382 27.1067 152.389 26.6668C152.472 27.7115 152.024 29.059 151.38 29.7738C150.454 30.2966 148.885 30.7365 146.95 30.7365C142.044 30.7365 139.438 27.9594 139.438 23.5039C139.438 18.9114 142.241 15.9414 146.643 15.9414C150.735 15.9414 152.614 18.4166 152.614 22.0464C152.61 22.9242 152.469 23.7963 152.193 24.6315H143.673ZM148.803 21.7426C149.027 20.313 148.494 18.9105 146.476 18.9105C144.738 18.9105 143.673 20.0101 143.561 21.7426H148.803Z" fill="#F2545B"/>
<path d="M166.185 13.6578C162.232 13.6578 159.513 15.6381 159.513 20.4225C159.513 25.2069 162.204 27.1052 165.988 27.1052C167.604 27.09 169.202 26.7737 170.698 26.1733C170.754 27.191 170.249 28.9504 169.577 29.8311C168.371 30.4089 166.631 30.8208 164.671 30.8208C158.671 30.8208 155.139 27.026 155.139 20.7011C155.14 13.8777 159.26 10 165.316 10C166.914 10 168.539 10.2796 169.577 10.8797C170.222 11.7874 170.502 13.4099 170.361 14.6195C169.016 13.9876 167.783 13.6578 166.185 13.6578Z" fill="#F2545B"/>
<path d="M180.651 28.755C180.035 29.9665 178.717 30.7354 176.783 30.7354C174.313 30.7354 172.186 29.5239 172.186 26.3358C172.186 22.9809 174.656 21.6884 177.905 21.6884C178.769 21.6779 179.629 21.7986 180.456 22.0462V21.6614C180.456 19.9839 179.615 19.3791 177.764 19.3791C176.193 19.3781 174.647 19.7748 173.278 20.5309C172.942 19.4583 173.081 17.7538 173.726 16.8462C174.736 16.2963 176.474 15.9385 178.549 15.9385C182.586 15.9385 184.52 17.3363 184.52 21.4107V26.1681C184.52 27.0208 184.912 27.2128 185.47 27.2128C185.896 27.2202 186.315 27.1055 186.675 26.8829C186.788 27.9825 186.451 29.3301 185.947 30.0999C185.358 30.4848 184.573 30.7326 183.62 30.7326C181.995 30.7326 181.15 30.0448 180.873 28.7523L180.651 28.755ZM180.539 24.6854C179.95 24.4602 179.321 24.3482 178.688 24.3555C177.063 24.3555 176.25 25.0153 176.25 26.0609C176.25 27.1335 177.063 27.5184 178.184 27.5184C179.081 27.5184 179.979 27.2388 180.539 26.5558V24.6854Z" fill="#F2545B"/>
<path d="M193.048 19.8786H196.791C196.96 19.5468 197.044 18.8535 197.044 18.1629C197.044 17.4724 196.96 16.78 196.791 16.4473H193.048V12.3506C191.472 12.3786 189.982 12.7383 188.968 13.4568V16.4445H187.364C186.998 17.3298 186.802 18.6811 186.802 19.8749H188.969L188.914 29.5946C188.914 30.6654 188.724 32.0344 188.1 32.4641C185.129 34.5264 179.086 33.5283 173.542 32.9626C165.577 32.15 158.698 31.0821 157.555 35.4051C156.95 37.6892 157.735 39.1486 158.498 39.9715C160.032 41.6238 162.74 42.0003 164.889 42.0003C165.899 41.9992 166.908 41.9216 167.906 41.7683C168.415 41.6872 168.869 41.4117 169.17 41.0021C169.471 40.5925 169.594 40.0824 169.512 39.5838C169.341 38.5457 168.339 37.8133 167.286 38.0053C165.077 38.4097 161.959 39.3098 160.763 38.0211C160.358 37.5859 160.429 36.5169 160.763 36.1861C161.652 34.8814 167.376 35.38 173.139 36.1432C179.505 36.7955 186.095 37.7098 189.837 35.8739C191.302 35.1553 193.048 33.4826 193.048 29.5946V19.8786Z" fill="#F2545B"/>
</g>
</g>
<defs>
<clipPath id="clip0_2406_386">
<rect width="154" height="32" fill="white" transform="translate(43 10)"/>
</clipPath>
</defs>
</svg>
