<svg width="240" height="48" viewBox="0 0 240 48" fill="none" xmlns="http://www.w3.org/2000/svg">
<g clip-path="url(#clip0_2406_467)">
<path d="M125.551 15.2352C124.577 15.2352 123.788 14.458 123.788 13.4992C123.788 12.5404 124.577 11.7632 125.551 11.7632C126.524 11.7632 127.314 12.5404 127.314 13.4992C127.314 14.458 126.524 15.2352 125.551 15.2352ZM125.551 10C123.588 10 121.997 11.5667 121.997 13.4992V23.9998C121.997 27.8606 118.807 31.0017 114.886 31.0017C110.965 31.0017 107.775 27.8606 107.775 23.9998V13.4992C107.775 11.5667 106.183 10 104.221 10C102.258 10 100.667 11.5667 100.667 13.4992V23.9998C100.667 31.7196 107.045 38 114.886 38C122.726 38 129.104 31.7196 129.104 23.9998V13.4992C129.104 11.5667 127.513 10 125.551 10Z" fill="black"/>
<path d="M156.446 36.2366C155.472 36.2366 154.683 35.4594 154.683 34.5006C154.683 33.5418 155.472 32.7646 156.446 32.7646C157.42 32.7646 158.209 33.5418 158.209 34.5006C158.209 35.4594 157.42 36.2366 156.446 36.2366ZM140.755 24.0001L132.603 32.0265C131.216 33.393 131.216 35.6086 132.603 36.9751C133.991 38.3416 136.242 38.3416 137.629 36.9751L145.781 28.9487L153.933 36.9751C155.321 38.3415 157.571 38.3416 158.959 36.9751C160.347 35.6086 160.347 33.393 158.959 32.0265L150.807 24.0001L150.807 23.9999L158.959 15.9734C160.347 14.6069 160.347 12.3914 158.959 11.0249C157.571 9.65837 155.321 9.65837 153.933 11.0249L145.781 19.0513L137.629 11.0249C136.242 9.65843 133.991 9.65837 132.603 11.0249C131.216 12.3914 131.216 14.6069 132.603 15.9734L140.755 23.9999V24.0001Z" fill="black"/>
<path d="M93.8835 36.2372C92.9097 36.2372 92.1204 35.4599 92.1204 34.5012C92.1204 33.5424 92.9097 32.7652 93.8835 32.7652C94.8573 32.7652 95.6466 33.5424 95.6466 34.5012C95.6466 35.4599 94.8573 36.2372 93.8835 36.2372ZM95.2437 10.2665C93.9157 9.72486 92.3871 10.0242 91.3707 11.025L83.2188 19.0514L75.0669 11.025C74.0504 10.0242 72.5219 9.72486 71.1939 10.2665C69.8659 10.8081 69 12.084 69 13.4993V34.5008C69 36.4333 70.5912 38 72.5539 38C74.5167 38 76.1078 36.4333 76.1078 34.5008V21.9471L80.7058 26.4743C82.0938 27.8409 84.3438 27.8409 85.7318 26.4743L90.3297 21.9471V34.5008C90.3297 36.4333 91.9209 38 93.8836 38C95.8464 38 97.4375 36.4333 97.4375 34.5008V13.4993C97.4375 12.084 96.5716 10.8081 95.2437 10.2665Z" fill="black"/>
</g>
<defs>
<clipPath id="clip0_2406_467">
<rect width="91" height="28" fill="white" transform="translate(69 10)"/>
</clipPath>
</defs>
</svg>
