<svg width="240" height="48" viewBox="0 0 240 48" fill="none" xmlns="http://www.w3.org/2000/svg">
<g clip-path="url(#clip0_2407_563)">
<mask id="mask0_2407_563" style="mask-type:luminance" maskUnits="userSpaceOnUse" x="45" y="9" width="149" height="30">
<path d="M193.988 9H45V38.9827H193.988V9Z" fill="white"/>
</mask>
<g mask="url(#mask0_2407_563)">
<path d="M105.838 27.6954C107.643 28.7527 109.675 29.3513 111.759 29.4399C113.027 29.4399 113.799 29.0931 113.799 28.2694C113.799 27.0988 112.12 27.215 109.855 26.641C107.021 25.9301 105.342 24.7335 105.342 22.259C105.342 19.0699 108.177 17.2578 111.897 17.2578C113.872 17.2391 115.829 17.6458 117.636 18.4509V22.3977C115.915 21.4316 113.996 20.8819 112.029 20.7919C110.805 20.7919 110.08 21.1578 110.08 21.8462C110.08 22.9023 111.69 22.9023 113.912 23.4069C116.77 24.1179 118.518 25.2191 118.518 27.8341C118.518 31.1289 115.613 32.9497 111.781 32.9497C109.744 32.9579 107.729 32.5275 105.869 31.6873L105.847 27.6988L105.838 27.6954ZM131.231 32.1694C130.191 32.7264 129.029 33.0102 127.852 32.9948C127.134 33.0277 126.416 32.9103 125.745 32.6499C125.074 32.3892 124.463 31.9914 123.951 31.4809C123.157 30.6329 122.636 29.3705 122.636 26.9619V21.4127H120.208V17.5561H122.636V11.6844H127.265V17.5561H131.235V21.4335H127.262V26.5023C127.262 27.9711 127.605 29.0723 129.009 29.0723C129.788 29.031 130.548 28.8198 131.238 28.4532V32.1694H131.231ZM165.98 11.6844H170.609V23.9341H170.678L175.918 17.5179H181.156L175.419 24.2809L181.591 32.6324H176.12L170.654 24.9208H170.585V32.6046H165.956L165.98 11.6844ZM186.821 28.063C186.821 25.7913 187.335 24.5757 188.93 24.0486V23.9792C187.342 23.459 186.821 22.2451 186.821 19.9647V14.5491C186.821 12.9208 186.253 12.3468 184.894 12.3468C184.505 12.3511 184.118 12.39 183.736 12.463V9.18382C184.433 9.06583 185.139 9.00437 185.845 9C189.453 9 191.085 11.0653 191.085 14.0012V20.1486C191.085 21.7092 191.516 22.3283 193.103 22.3283H193.988V25.6994H193.103C191.516 25.6994 191.085 26.3202 191.085 27.8792V34.0509C191.085 36.9867 189.407 39.052 185.845 39.052C185.139 39.0477 184.433 38.9861 183.736 38.8682V35.5873C184.116 35.6782 184.504 35.7241 184.894 35.7243C186.231 35.7243 186.821 35.152 186.821 33.522V28.063ZM147.863 29.1416C147.229 29.1416 146.956 28.6595 146.956 27.9486V22.8329C147.021 22.0524 146.903 21.2675 146.611 20.5419C146.319 19.8163 145.863 19.1706 145.278 18.6572C143.82 17.6276 142.064 17.1193 140.288 17.2127C138.476 17.1955 136.684 17.5958 135.048 18.3832V22.3977C136.387 21.6403 137.891 21.2304 139.426 21.2046C140.247 21.1381 141.066 21.3651 141.739 21.8462C141.935 22.0615 142.087 22.3146 142.184 22.5906C142.282 22.8665 142.323 23.1595 142.306 23.452V24.0486C141.456 23.8649 140.59 23.7724 139.72 23.7728C138.252 23.7057 136.797 24.0727 135.532 24.8289C134.946 25.2297 134.471 25.7739 134.149 26.4106C133.828 27.0473 133.671 27.7559 133.694 28.4705C133.675 29.1616 133.827 29.8465 134.136 30.4632C134.445 31.0798 134.901 31.6091 135.463 32.0029C136.498 32.6705 137.706 33.0139 138.933 32.9896C140.427 33.0137 141.891 32.5738 143.129 31.7289L143.175 31.7046C143.608 32.1146 144.119 32.4317 144.676 32.6367C145.233 32.8418 145.826 32.9305 146.418 32.8977C147.186 32.9195 147.948 32.7629 148.647 32.4399V28.9578C148.402 29.0768 148.135 29.1395 147.863 29.1416ZM142.328 28.9578C141.691 29.3459 140.964 29.5592 140.219 29.5769C139.131 29.5769 138.29 29.0566 138.29 28.063C138.29 26.8925 139.491 26.5266 140.672 26.5266C141.231 26.5254 141.787 26.5946 142.328 26.7329V28.9578ZM163.058 31.826C161.539 32.6237 159.847 33.0255 158.135 32.9948C153.326 32.9948 149.734 29.6688 149.734 25.1272C149.734 20.3775 153.636 17.2127 158.331 17.2127C159.879 17.2135 161.406 17.5743 162.794 18.2671V22.6023C161.554 21.7449 160.1 21.2598 158.598 21.2029C157.889 21.1693 157.183 21.3332 156.559 21.6769C155.935 22.0206 155.417 22.5308 155.059 23.152C154.697 23.7686 154.508 24.4735 154.513 25.1906C154.518 25.9077 154.717 26.6098 155.087 27.2213C155.458 27.8327 155.986 28.3302 156.616 28.6601C157.246 28.9899 157.952 29.1397 158.66 29.0931C160.248 29.0684 161.788 28.5387 163.061 27.5792V31.8243L163.058 31.826ZM97.7861 11.9358H102.416V32.6514H97.7861V11.9358ZM70.1808 31.826C68.6651 32.6098 66.9844 33.0109 65.2822 32.9948C60.4813 32.9948 56.8891 29.6688 56.8891 25.1272C56.8891 20.3775 60.7916 17.2127 65.4862 17.2127C67.0283 17.2164 68.5492 17.577 69.9322 18.2671V22.6023C68.6915 21.7449 67.2365 21.2597 65.7348 21.2029C65.0274 21.173 64.3252 21.3374 63.7028 21.6787C63.0804 22.02 62.5611 22.5254 62.1998 23.1413C61.8387 23.7572 61.6492 24.4605 61.6515 25.1765C61.6538 25.8926 61.8479 26.5946 62.213 27.2081C62.5858 27.8204 63.1161 28.3188 63.7474 28.65C64.3786 28.981 65.0869 29.1324 65.7966 29.0879C67.3778 29.0667 68.911 28.5364 70.174 27.574V31.8191L70.1808 31.826ZM86.6411 29.1416C86.0067 29.1416 85.7341 28.6595 85.7341 27.9486V22.8329C85.7989 22.0524 85.6808 21.2675 85.3889 20.5419C85.0973 19.8163 84.6405 19.1706 84.0555 18.6572C82.5977 17.6271 80.8418 17.1188 79.066 17.2127C77.2541 17.1957 75.4622 17.596 73.8261 18.3832V22.3977C75.1654 21.6405 76.6693 21.2306 78.2035 21.2046C79.025 21.1378 79.8437 21.3649 80.5165 21.8462C80.7135 22.0612 80.8654 22.3143 80.963 22.5903C81.0606 22.8663 81.1017 23.1595 81.0841 23.452V24.0486C80.2341 23.8647 79.3676 23.7723 78.4984 23.7728C77.0269 23.6929 75.5656 24.0607 74.3028 24.8289C73.7177 25.23 73.2424 25.7741 72.921 26.4108C72.5996 27.0475 72.4427 27.7561 72.4647 28.4705C72.4472 29.1614 72.5998 29.846 72.9086 30.4625C73.2176 31.0791 73.673 31.6084 74.2342 32.0029C75.2695 32.6705 76.4769 33.0139 77.7046 32.9896C79.1978 33.0137 80.6623 32.5738 81.9002 31.7289L81.9465 31.7046C82.3796 32.1147 82.8902 32.4319 83.4478 32.6369C84.0054 32.842 84.5982 32.9306 85.1906 32.8977C85.9584 32.9195 86.721 32.7629 87.4196 32.4399V28.9578C87.1766 29.0761 86.9108 29.1388 86.6411 29.1416ZM81.0841 28.9578C80.4462 29.3459 79.7192 29.5592 78.9751 29.5769C77.8863 29.5769 77.0479 29.0566 77.0479 28.063C77.0479 26.8925 78.2481 26.5266 79.4295 26.5266C79.9874 26.5254 80.5431 26.5947 81.0841 26.7329V28.9578ZM89.8166 11.9358H94.4461V32.6514H89.8166V11.9358ZM47.9028 27.8792C47.9028 26.3185 47.4725 25.6994 45.8847 25.6994H45V22.3283H45.8847C47.4725 22.3283 47.9028 21.7092 47.9028 20.1486V14.0012C47.9028 11.041 49.5815 9 53.1427 9C53.8494 9.00437 54.5547 9.06583 55.2517 9.18382V12.4682C54.8731 12.3768 54.4853 12.3302 54.096 12.3295C52.7569 12.3295 52.1671 12.9035 52.1671 14.5318V19.9422C52.1671 22.2139 51.6527 23.4295 50.0581 23.9566V24.026C51.6458 24.5462 52.1671 25.7601 52.1671 28.0405V33.4509C52.1671 35.0792 52.7569 35.6532 54.096 35.6532C54.4853 35.6525 54.8731 35.6058 55.2517 35.5145V38.7954C54.5547 38.9133 53.8494 38.9749 53.1427 38.9792C49.542 38.9792 47.9028 36.9139 47.9028 33.978V27.8792Z" fill="black"/>
</g>
</g>
<defs>
<clipPath id="clip0_2407_563">
<rect width="149" height="30" fill="white" transform="translate(45 9)"/>
</clipPath>
</defs>
</svg>
