<svg width="240" height="48" viewBox="0 0 240 48" fill="none" xmlns="http://www.w3.org/2000/svg">
<mask id="mask0_2407_551" style="mask-type:luminance" maskUnits="userSpaceOnUse" x="67" y="13" width="105" height="22">
<path d="M167.199 13.7471H71.6074C69.4743 13.7471 67.7451 15.4473 67.7451 17.5445V30.4161C67.7451 32.5133 69.4743 34.2135 71.6074 34.2135H167.199C169.332 34.2135 171.061 32.5133 171.061 30.4161V17.5445C171.061 15.4473 169.332 13.7471 167.199 13.7471Z" fill="white"/>
</mask>
<g mask="url(#mask0_2407_551)">
<path d="M71.1301 27.2442C71.1301 28.4209 71.3928 29.3241 71.7361 29.8706C72.1862 30.5864 72.8575 30.8896 73.5419 30.8896C74.4247 30.8896 75.2323 30.6743 76.7884 28.558C78.0354 26.8617 79.5044 24.4807 80.4929 22.9881L82.1669 20.4592C83.3296 18.703 84.6756 16.7506 86.2188 15.4272C87.4786 14.3471 88.8378 13.7471 90.2054 13.7471C92.5017 13.7471 94.6889 15.0554 96.363 17.5093C98.1949 20.1967 99.0842 23.5817 99.0842 27.0749C99.0842 29.1515 98.668 30.6775 97.9595 31.883C97.2751 33.0488 95.9413 34.2135 93.6973 34.2135V30.8896C95.6186 30.8896 96.0981 29.1538 96.0981 27.1671C96.0981 24.3361 95.4268 21.1943 93.948 18.9494C92.8984 17.3571 91.5383 16.3841 90.042 16.3841C88.4235 16.3841 87.1212 17.5843 85.6576 19.7241C84.8793 20.861 84.0806 22.2465 83.1836 23.8099L82.1962 25.5298C80.2127 28.9876 79.7104 29.7752 78.7186 31.0749C76.9804 33.3509 75.4959 34.2135 73.5419 34.2135C71.2238 34.2135 69.758 33.2266 68.8502 31.7393C68.1091 30.5275 67.7451 28.9373 67.7451 27.1253L71.1301 27.2442Z" fill="#0081FB"/>
<path d="M70.4141 17.7439C71.966 15.3919 74.2056 13.7471 76.7743 13.7471C78.2618 13.7471 79.7409 14.18 81.285 15.4197C82.9744 16.7752 84.7748 19.0073 87.0209 22.6859L87.8262 24.006C89.7705 27.1906 90.8768 28.8291 91.5241 29.6017C92.3566 30.5938 92.9398 30.8896 93.6972 30.8896C95.6185 30.8896 96.098 29.1538 96.098 27.1671L99.0841 27.0749C99.0841 29.1515 98.668 30.6775 97.9594 31.883C97.275 33.0488 95.9412 34.2135 93.6972 34.2135C92.3022 34.2135 91.0662 33.9156 89.6998 32.648C88.649 31.6751 87.4208 29.9467 86.4759 28.393L83.6654 23.7767C82.255 21.46 80.9614 19.7327 80.2127 18.9505C79.4074 18.1093 78.3719 17.0935 76.7198 17.0935C75.3825 17.0935 74.247 18.0161 73.2967 19.4273L70.4141 17.7439Z" fill="url(#paint0_linear_2407_551)"/>
<path d="M76.7199 17.0935C75.3826 17.0935 74.247 18.0161 73.2967 19.4273C71.953 21.4215 71.1301 24.3918 71.1301 27.2442C71.1301 28.4209 71.3928 29.3241 71.7361 29.8705L68.8502 31.7393C68.1091 30.5275 67.7451 28.9373 67.7451 27.1253C67.7451 23.8303 68.6649 20.396 70.4141 17.7439C71.966 15.3919 74.2056 13.7471 76.7743 13.7471L76.7199 17.0935Z" fill="url(#paint1_linear_2407_551)"/>
<path d="M105.665 14.3945H109.581L116.238 26.2372L122.897 14.3945H126.728V33.8538H123.534V18.94L117.694 29.2676H114.698L108.859 18.94V33.8538H105.665V14.3945ZM136.737 21.65C134.446 21.65 133.067 23.3451 132.736 25.4443H140.511C140.351 23.2819 139.082 21.65 136.737 21.65ZM129.569 26.6401C129.569 22.2232 132.473 19.0086 136.793 19.0086C141.042 19.0086 143.579 22.1825 143.579 26.8759V27.7385H132.736C133.121 30.0219 134.662 31.5607 137.147 31.5607C139.129 31.5607 140.368 30.966 141.543 29.8784L143.24 31.9218C141.641 33.3673 139.608 34.2009 137.033 34.2009C132.357 34.2009 129.569 30.8481 129.569 26.6401ZM147.452 21.9286H144.512V19.3569H147.452V15.1039H150.534V19.3569H155.002V21.9286H150.534V28.4467C150.534 30.6722 151.258 31.4631 153.037 31.4631C153.848 31.4631 154.314 31.3945 155.002 31.2821V33.8259C154.145 34.0638 153.328 34.1731 152.443 34.1731C149.115 34.1731 147.452 32.3857 147.452 28.8079V21.9286ZM167.979 24.4295C167.36 22.8929 165.979 21.7614 163.95 21.7614C161.313 21.7614 159.624 23.6012 159.624 26.5983C159.624 29.5205 161.179 31.4492 163.824 31.4492C165.903 31.4492 167.387 30.2598 167.979 28.78V24.4295ZM171.061 33.8538H168.036V31.8242C167.19 33.0191 165.651 34.2009 163.159 34.2009C159.151 34.2009 156.472 30.9016 156.472 26.5983C156.472 22.2543 159.215 19.0086 163.329 19.0086C165.362 19.0086 166.958 19.808 168.036 21.2192V19.3569H171.061V33.8538Z" fill="#192830"/>
</g>
<defs>
<linearGradient id="paint0_linear_2407_551" x1="74.393" y1="26.2841" x2="95.9698" y2="27.3924" gradientUnits="userSpaceOnUse">
<stop stop-color="#0064E1"/>
<stop offset="0.4" stop-color="#0064E1"/>
<stop offset="0.83" stop-color="#0073EE"/>
<stop offset="1" stop-color="#0082FB"/>
</linearGradient>
<linearGradient id="paint1_linear_2407_551" x1="72.6494" y1="28.6415" x2="72.6494" y2="20.8192" gradientUnits="userSpaceOnUse">
<stop stop-color="#0082FB"/>
<stop offset="1" stop-color="#0064E0"/>
</linearGradient>
</defs>
</svg>
