<svg width="240" height="48" viewBox="0 0 240 48" fill="none" xmlns="http://www.w3.org/2000/svg">
<mask id="mask0_2407_551" style="mask-type:luminance" maskUnits="userSpaceOnUse" x="61" y="12" width="118" height="24">
<path d="M173.985 12.3799H65.7961C63.3819 12.3799 61.4248 14.3068 61.4248 16.6837V31.2714C61.4248 33.6483 63.3819 35.5752 65.7961 35.5752H173.985C176.399 35.5752 178.356 33.6483 178.356 31.2714V16.6837C178.356 14.3068 176.399 12.3799 173.985 12.3799Z" fill="white"/>
</mask>
<g mask="url(#mask0_2407_551)">
<path d="M65.2559 27.6767C65.2559 29.0102 65.5532 30.0338 65.9417 30.6532C66.4511 31.4644 67.2109 31.8081 67.9855 31.8081C68.9847 31.8081 69.8987 31.5641 71.6599 29.1656C73.0711 27.2431 74.7338 24.5447 75.8526 22.853L77.7471 19.987C79.063 17.9966 80.5864 15.7839 82.333 14.2841C83.7589 13.0599 85.2971 12.3799 86.845 12.3799C89.4439 12.3799 91.9194 13.8627 93.8141 16.6437C95.8874 19.6895 96.8938 23.5258 96.8938 27.4848C96.8938 29.8382 96.4228 31.5677 95.6209 32.934C94.8463 34.2552 93.3367 35.5752 90.797 35.5752V31.8081C92.9715 31.8081 93.5142 29.8408 93.5142 27.5892C93.5142 24.3807 92.7545 20.8201 91.0807 18.2759C89.8928 16.4712 88.3535 15.3686 86.6601 15.3686C84.8283 15.3686 83.3543 16.7287 81.6978 19.1539C80.817 20.4424 79.913 22.0126 78.8978 23.7845L77.7803 25.7336C75.5354 29.6525 74.967 30.5451 73.8444 32.0181C71.8771 34.5976 70.197 35.5752 67.9855 35.5752C65.362 35.5752 63.703 34.4566 62.6755 32.7711C61.8368 31.3977 61.4248 29.5955 61.4248 27.5419L65.2559 27.6767Z" fill="#0081FB"/>
<path d="M64.4453 16.9097C66.2017 14.244 68.7365 12.3799 71.6437 12.3799C73.3273 12.3799 75.0013 12.8705 76.7489 14.2756C78.6609 15.8118 80.6985 18.3414 83.2406 22.5105L84.1521 24.0067C86.3525 27.6159 87.6047 29.4728 88.3373 30.3485C89.2795 31.4728 89.9396 31.8081 90.7968 31.8081C92.9713 31.8081 93.514 29.8408 93.514 27.5892L96.8936 27.4848C96.8936 29.8382 96.4226 31.5677 95.6207 32.934C94.8461 34.2552 93.3365 35.5752 90.7968 35.5752C89.2179 35.5752 87.8191 35.2376 86.2726 33.801C85.0834 32.6983 83.6933 30.7395 82.6239 28.9786L79.4429 23.7468C77.8467 21.1212 76.3826 19.1636 75.5352 18.2771C74.6238 17.3238 73.4519 16.1725 71.5821 16.1725C70.0685 16.1725 68.7834 17.2181 67.7078 18.8175L64.4453 16.9097Z" fill="url(#paint0_linear_2407_551)"/>
<path d="M71.5823 16.1725C70.0687 16.1725 68.7836 17.2181 67.708 18.8175C66.1872 21.0775 65.2559 24.4439 65.2559 27.6767C65.2559 29.0102 65.5532 30.0338 65.9417 30.6532L62.6755 32.7711C61.8368 31.3977 61.4248 29.5955 61.4248 27.5419C61.4248 23.8075 62.4658 19.9153 64.4455 16.9097C66.202 14.244 68.7367 12.3799 71.6439 12.3799L71.5823 16.1725Z" fill="url(#paint1_linear_2407_551)"/>
<path d="M104.342 13.1133H108.773L116.309 26.535L123.845 13.1133H128.181V35.1671H124.565V18.2648L117.957 29.9694H114.565L107.957 18.2648V35.1671H104.342V13.1133ZM139.509 21.3361C136.916 21.3361 135.354 23.2573 134.981 25.6363H143.78C143.599 23.1857 142.163 21.3361 139.509 21.3361ZM131.396 26.9916C131.396 21.9858 134.682 18.3425 139.572 18.3425C144.381 18.3425 147.252 21.9397 147.252 27.2588V28.2364H134.981C135.416 30.8243 137.16 32.5682 139.972 32.5682C142.216 32.5682 143.618 31.8943 144.948 30.6616L146.869 32.9775C145.059 34.6158 142.758 35.5604 139.844 35.5604C134.551 35.5604 131.396 31.7606 131.396 26.9916ZM151.636 21.6518H148.308V18.7372H151.636V13.9172H155.124V18.7372H160.18V21.6518H155.124V29.0391C155.124 31.5614 155.943 32.4576 157.956 32.4576C158.875 32.4576 159.402 32.3799 160.18 32.2525V35.1354C159.21 35.4051 158.286 35.529 157.284 35.529C153.518 35.529 151.636 33.5032 151.636 29.4484V21.6518ZM174.868 24.4863C174.167 22.7448 172.605 21.4624 170.308 21.4624C167.323 21.4624 165.412 23.5475 165.412 26.9443C165.412 30.256 167.171 32.4419 170.165 32.4419C172.518 32.4419 174.198 31.094 174.868 29.4168V24.4863ZM178.356 35.1671H174.932V32.8669C173.975 34.2211 172.233 35.5604 169.412 35.5604C164.876 35.5604 161.844 31.8213 161.844 26.9443C161.844 22.021 164.949 18.3425 169.605 18.3425C171.906 18.3425 173.712 19.2485 174.932 20.8479V18.7372H178.356V35.1671Z" fill="#192830"/>
</g>
<defs>
<linearGradient id="paint0_linear_2407_551" x1="68.9486" y1="26.5885" x2="93.3691" y2="27.8412" gradientUnits="userSpaceOnUse">
<stop stop-color="#0064E1"/>
<stop offset="0.4" stop-color="#0064E1"/>
<stop offset="0.83" stop-color="#0073EE"/>
<stop offset="1" stop-color="#0082FB"/>
</linearGradient>
<linearGradient id="paint1_linear_2407_551" x1="66.9753" y1="29.2602" x2="66.9753" y2="20.395" gradientUnits="userSpaceOnUse">
<stop stop-color="#0082FB"/>
<stop offset="1" stop-color="#0064E0"/>
</linearGradient>
</defs>
</svg>
