<svg width="240" height="48" viewBox="0 0 240 48" fill="none" xmlns="http://www.w3.org/2000/svg">
<g clip-path="url(#clip0_2405_245)">
<mask id="mask0_2405_245" style="mask-type:luminance" maskUnits="userSpaceOnUse" x="10" y="6" width="219" height="35">
<path d="M10 6H228.999V41H10V6Z" fill="white"/>
</mask>
<g mask="url(#mask0_2405_245)">
<path d="M110.03 25.2324C111.221 25.2324 112.431 24.793 113.661 23.9139V15.8023C113.065 15.363 112.465 15.0428 111.86 14.8421C111.255 14.6415 110.587 14.5411 109.857 14.5411C107.245 14.5411 105.938 16.3375 105.938 19.9298C105.938 23.4652 107.302 25.2324 110.03 25.2324ZM109.165 27.5254C107.898 27.5254 106.803 27.2101 105.881 26.5794C104.959 25.9489 104.253 25.0702 103.763 23.9426C103.273 22.8153 103.028 21.5062 103.028 20.0159C103.028 18.43 103.288 17.0492 103.806 15.8741C104.325 14.6988 105.055 13.8008 105.996 13.1798C106.937 12.5591 108.022 12.2481 109.252 12.2481C110.884 12.2481 112.354 12.7833 113.661 13.8532V6.57303C113.661 6.19093 113.852 5.99978 114.237 5.99978H115.937C116.321 5.99978 116.513 6.19093 116.513 6.57303V26.6369C116.513 27.0194 116.321 27.2101 115.937 27.2101H114.669C114.496 27.2101 114.356 27.1721 114.251 27.0955C114.145 27.0194 114.064 26.8661 114.006 26.6369L113.776 25.7196C113.142 26.2928 112.421 26.7373 111.615 27.0525C110.808 27.3678 109.991 27.5254 109.165 27.5254Z" fill="#232F3E"/>
</g>
<mask id="mask1_2405_245" style="mask-type:luminance" maskUnits="userSpaceOnUse" x="10" y="6" width="219" height="35">
<path d="M10 6H228.999V41H10V6Z" fill="white"/>
</mask>
<g mask="url(#mask1_2405_245)">
<path d="M129.681 18.6691C129.7 18.5164 129.71 18.2678 129.71 17.9239C129.71 16.7586 129.436 15.8795 128.888 15.2869C128.341 14.6948 127.539 14.3984 126.482 14.3984C125.272 14.3984 124.331 14.7565 123.659 15.4731C122.986 16.1899 122.602 17.2552 122.506 18.6691H129.681ZM126.915 27.6406C124.552 27.6406 122.765 26.9911 121.555 25.6913C120.345 24.3923 119.74 22.4717 119.74 19.9303C119.74 17.5038 120.345 15.6166 121.555 14.2694C122.765 12.9223 124.456 12.2487 126.626 12.2487C128.451 12.2487 129.854 12.7602 130.833 13.7822C131.813 14.8046 132.303 16.252 132.303 18.1245C132.303 18.7362 132.255 19.3571 132.159 19.9876C132.12 20.217 132.058 20.3701 131.971 20.4461C131.885 20.5228 131.746 20.5608 131.554 20.5608H122.506C122.545 22.2045 122.953 23.4177 123.731 24.2009C124.509 24.9847 125.714 25.3762 127.347 25.3762C127.923 25.3762 128.475 25.3382 129.004 25.2615C129.532 25.1853 130.199 25.0228 131.006 24.7744C131.14 24.7361 131.256 24.7026 131.352 24.674C131.448 24.6452 131.534 24.6309 131.611 24.6309C131.861 24.6309 131.986 24.803 131.986 25.1469V25.9495C131.986 26.1979 131.947 26.3749 131.87 26.4796C131.794 26.5849 131.63 26.6947 131.381 26.8094C130.804 27.0578 130.118 27.2581 129.321 27.4112C128.523 27.564 127.721 27.6406 126.915 27.6406Z" fill="#232F3E"/>
</g>
<mask id="mask2_2405_245" style="mask-type:luminance" maskUnits="userSpaceOnUse" x="10" y="6" width="219" height="35">
<path d="M10 6H228.999V41H10V6Z" fill="white"/>
</mask>
<g mask="url(#mask2_2405_245)">
<path d="M139.967 27.21C139.698 27.21 139.501 27.1719 139.376 27.0953C139.251 27.0192 139.121 26.7992 138.987 26.4361L133.887 13.7099C133.849 13.5952 133.805 13.4805 133.757 13.3658C133.709 13.2513 133.686 13.1464 133.686 13.0506C133.686 12.8026 133.83 12.6779 134.118 12.6779H135.818C136.106 12.6779 136.308 12.7165 136.423 12.7926C136.538 12.8692 136.663 13.0892 136.797 13.4519L140.745 24.6303L144.692 13.4519C144.826 13.0892 144.952 12.8692 145.067 12.7926C145.182 12.7165 145.384 12.6779 145.672 12.6779H147.257C147.545 12.6779 147.689 12.8026 147.689 13.0506C147.689 13.1464 147.665 13.2513 147.617 13.3658C147.569 13.4805 147.526 13.5952 147.487 13.7099L142.416 26.4361C142.281 26.7992 142.152 27.0192 142.027 27.0953C141.902 27.1719 141.705 27.21 141.436 27.21H139.967Z" fill="#232F3E"/>
</g>
<mask id="mask3_2405_245" style="mask-type:luminance" maskUnits="userSpaceOnUse" x="10" y="6" width="219" height="35">
<path d="M10 6H228.999V41H10V6Z" fill="white"/>
</mask>
<g mask="url(#mask3_2405_245)">
<path d="M158.812 18.6691C158.831 18.5164 158.841 18.2678 158.841 17.9239C158.841 16.7586 158.567 15.8795 158.019 15.2869C157.472 14.6948 156.67 14.3984 155.613 14.3984C154.403 14.3984 153.462 14.7565 152.789 15.4731C152.117 16.1899 151.733 17.2552 151.637 18.6691H158.812ZM156.046 27.6406C153.683 27.6406 151.896 26.9911 150.686 25.6913C149.476 24.3923 148.871 22.4717 148.871 19.9303C148.871 17.5038 149.476 15.6166 150.686 14.2694C151.896 12.9223 153.586 12.2487 155.757 12.2487C157.582 12.2487 158.985 12.7602 159.964 13.7822C160.944 14.8046 161.434 16.252 161.434 18.1245C161.434 18.7362 161.386 19.3571 161.29 19.9876C161.251 20.217 161.189 20.3701 161.102 20.4461C161.016 20.5228 160.876 20.5608 160.685 20.5608H151.637C151.675 22.2045 152.084 23.4177 152.862 24.2009C153.64 24.9847 154.845 25.3762 156.478 25.3762C157.054 25.3762 157.606 25.3382 158.134 25.2615C158.663 25.1853 159.33 25.0228 160.137 24.7744C160.271 24.7361 160.386 24.7026 160.483 24.674C160.579 24.6452 160.665 24.6309 160.742 24.6309C160.992 24.6309 161.117 24.803 161.117 25.1469V25.9495C161.117 26.1979 161.078 26.3749 161.001 26.4796C160.924 26.5849 160.761 26.6947 160.512 26.8094C159.935 27.0578 159.248 27.2581 158.451 27.4112C157.654 27.564 156.852 27.6406 156.046 27.6406Z" fill="#232F3E"/>
</g>
<mask id="mask4_2405_245" style="mask-type:luminance" maskUnits="userSpaceOnUse" x="10" y="6" width="219" height="35">
<path d="M10 6H228.999V41H10V6Z" fill="white"/>
</mask>
<g mask="url(#mask4_2405_245)">
<path d="M167.714 27.3535C166.696 27.3535 165.918 27.0624 165.38 26.4791C164.842 25.8965 164.573 25.0605 164.573 23.9712V6.5729C164.573 6.19099 164.765 5.99984 165.15 5.99984H166.85C167.234 5.99984 167.426 6.19099 167.426 6.5729V23.7993C167.426 24.2391 167.517 24.5588 167.7 24.7596C167.882 24.9601 168.185 25.0605 168.607 25.0605C168.723 25.0605 168.842 25.0511 168.967 25.0317C169.092 25.0131 169.203 25.0033 169.299 25.0033C169.491 25.0033 169.62 25.0511 169.688 25.1464C169.755 25.2422 169.789 25.3856 169.789 25.5765V26.4934C169.789 26.6848 169.745 26.833 169.659 26.9379C169.573 27.043 169.424 27.1241 169.213 27.1814C168.732 27.2961 168.233 27.3535 167.714 27.3535Z" fill="#232F3E"/>
</g>
<mask id="mask5_2405_245" style="mask-type:luminance" maskUnits="userSpaceOnUse" x="10" y="6" width="219" height="35">
<path d="M10 6H228.999V41H10V6Z" fill="white"/>
</mask>
<g mask="url(#mask5_2405_245)">
<path d="M178.721 25.3476C181.429 25.3476 182.783 23.542 182.783 19.9303C182.783 16.3381 181.429 14.5417 178.721 14.5417C176.013 14.5417 174.658 16.3381 174.658 19.9303C174.658 23.542 176.013 25.3476 178.721 25.3476ZM178.721 27.6406C176.531 27.6406 174.821 26.9625 173.592 25.6054C172.363 24.2489 171.748 22.3572 171.748 19.9303C171.748 17.5226 172.363 15.6407 173.592 14.2839C174.821 12.9272 176.531 12.2489 178.721 12.2489C180.911 12.2489 182.62 12.9272 183.85 14.2839C185.079 15.6407 185.694 17.5226 185.694 19.9303C185.694 22.3572 185.079 24.2489 183.85 25.6054C182.62 26.9625 180.911 27.6406 178.721 27.6406Z" fill="#232F3E"/>
</g>
<mask id="mask6_2405_245" style="mask-type:luminance" maskUnits="userSpaceOnUse" x="10" y="6" width="219" height="35">
<path d="M10 6H228.999V41H10V6Z" fill="white"/>
</mask>
<g mask="url(#mask6_2405_245)">
<path d="M195.576 25.233C198.227 25.233 199.552 23.456 199.552 19.9018C199.552 18.0866 199.23 16.7395 198.587 15.8604C197.943 14.9817 196.959 14.5418 195.634 14.5418C194.269 14.5418 192.983 14.9817 191.772 15.8604V23.8571C193.021 24.7744 194.289 25.233 195.576 25.233ZM189.496 33.1152C189.112 33.1152 188.92 32.9239 188.92 32.542V13.2521C188.92 12.87 189.112 12.6787 189.496 12.6787H190.764C191.148 12.6787 191.369 12.87 191.427 13.2521L191.571 14.1693C193.03 12.8892 194.654 12.2487 196.44 12.2487C198.303 12.2487 199.773 12.9224 200.849 14.2696C201.924 15.6167 202.462 17.4466 202.462 19.7585C202.462 22.1087 201.895 23.9912 200.762 25.4049C199.629 26.8194 198.121 27.526 196.238 27.526C194.51 27.526 193.021 26.9626 191.772 25.8349V32.542C191.772 32.9239 191.58 33.1152 191.196 33.1152H189.496Z" fill="#232F3E"/>
</g>
<mask id="mask7_2405_245" style="mask-type:luminance" maskUnits="userSpaceOnUse" x="10" y="6" width="219" height="35">
<path d="M10 6H228.999V41H10V6Z" fill="white"/>
</mask>
<g mask="url(#mask7_2405_245)">
<path d="M214.881 18.6691C214.9 18.5164 214.91 18.2678 214.91 17.9239C214.91 16.7586 214.636 15.8795 214.089 15.2869C213.541 14.6948 212.739 14.3984 211.683 14.3984C210.473 14.3984 209.531 14.7565 208.859 15.4731C208.187 16.1899 207.802 17.2552 207.707 18.6691H214.881ZM212.115 27.6406C209.752 27.6406 207.966 26.9911 206.756 25.6913C205.546 24.3923 204.94 22.4717 204.94 19.9303C204.94 17.5038 205.546 15.6166 206.756 14.2694C207.966 12.9223 209.656 12.2487 211.827 12.2487C213.652 12.2487 215.054 12.7602 216.034 13.7822C217.013 14.8046 217.503 16.252 217.503 18.1245C217.503 18.7362 217.455 19.3571 217.359 19.9876C217.32 20.217 217.258 20.3701 217.172 20.4461C217.085 20.5228 216.946 20.5608 216.754 20.5608H207.707C207.745 22.2045 208.153 23.4177 208.931 24.2009C209.709 24.9847 210.914 25.3762 212.547 25.3762C213.123 25.3762 213.676 25.3382 214.204 25.2615C214.732 25.1853 215.4 25.0228 216.207 24.7744C216.341 24.7361 216.456 24.7026 216.552 24.674C216.648 24.6452 216.735 24.6309 216.812 24.6309C217.061 24.6309 217.186 24.803 217.186 25.1469V25.9495C217.186 26.1979 217.148 26.3749 217.071 26.4796C216.994 26.5849 216.831 26.6947 216.581 26.8094C216.005 27.0578 215.318 27.2581 214.521 27.4112C213.724 27.564 212.922 27.6406 212.115 27.6406Z" fill="#232F3E"/>
</g>
<mask id="mask8_2405_245" style="mask-type:luminance" maskUnits="userSpaceOnUse" x="10" y="6" width="219" height="35">
<path d="M10 6H228.999V41H10V6Z" fill="white"/>
</mask>
<g mask="url(#mask8_2405_245)">
<path d="M221.22 27.21C220.836 27.21 220.644 27.0192 220.644 26.6367V13.2513C220.644 12.8692 220.836 12.6779 221.22 12.6779H222.488C222.679 12.6779 222.829 12.7165 222.934 12.7926C223.04 12.8692 223.112 13.0125 223.15 13.2225L223.352 14.8278C223.871 14.2737 224.361 13.8344 224.822 13.5091C225.283 13.1845 225.758 12.9459 226.248 12.7926C226.738 12.64 227.261 12.5634 227.818 12.5634C228.049 12.5634 228.279 12.5732 228.51 12.592C228.836 12.6304 229 12.8026 229 13.108V14.6556C229 14.9997 228.827 15.1716 228.481 15.1716C228.308 15.1716 228.14 15.1622 227.977 15.143C227.813 15.1242 227.635 15.1144 227.444 15.1144C225.907 15.1144 224.591 15.573 223.496 16.4901V26.6367C223.496 27.0192 223.304 27.21 222.92 27.21H221.22Z" fill="#232F3E"/>
</g>
<mask id="mask9_2405_245" style="mask-type:luminance" maskUnits="userSpaceOnUse" x="10" y="6" width="219" height="35">
<path d="M10 6H228.999V41H10V6Z" fill="white"/>
</mask>
<g mask="url(#mask9_2405_245)">
<path d="M84.1895 13.1667C84.1895 13.0385 84.2305 12.9338 84.3125 12.8522C84.4061 12.7591 84.5175 12.7124 84.6462 12.7124H86.9646C87.0933 12.7124 87.1988 12.7532 87.2808 12.8348C87.3744 12.9163 87.4329 13.0269 87.4564 13.1667L87.8078 14.879H87.9481C88.2644 14.0869 88.7267 13.4753 89.3357 13.0443C89.9563 12.6134 90.6822 12.398 91.5137 12.398C92.4035 12.398 93.1706 12.6309 93.8144 13.0969C94.4701 13.5627 94.9737 14.2267 95.3249 15.0886C95.6763 15.9506 95.8519 16.9697 95.8519 18.1462V26.7948C95.8519 26.9228 95.805 27.0336 95.7114 27.1267C95.6294 27.2082 95.5239 27.249 95.3952 27.249H92.585C92.4561 27.249 92.345 27.2082 92.2514 27.1267C92.1694 27.0336 92.1284 26.9228 92.1284 26.7948V18.4257C92.1284 17.5755 91.9528 16.9232 91.6014 16.4688C91.2502 16.0145 90.7526 15.7875 90.1085 15.7875C89.3943 15.7875 88.8497 16.0553 88.4751 16.5911C88.1004 17.1269 87.913 17.9015 87.913 18.9149V26.7948C87.913 26.9228 87.8663 27.0336 87.7725 27.1267C87.6905 27.2082 87.5852 27.249 87.4564 27.249H84.6462C84.5175 27.249 84.4061 27.2082 84.3125 27.1267C84.2305 27.0336 84.1895 26.9228 84.1895 26.7948V13.1667ZM73.4755 19.9806C73.4755 21.46 73.6864 22.6014 74.108 23.4052C74.5295 24.1973 75.1383 24.5933 75.9345 24.5933C76.7307 24.5933 77.3454 24.1973 77.7788 23.4052C78.212 22.6014 78.4286 21.46 78.4286 19.9806C78.4286 18.5014 78.212 17.3657 77.7788 16.5736C77.3454 15.77 76.7307 15.3681 75.9345 15.3681C75.1383 15.3681 74.5295 15.77 74.108 16.5736C73.6864 17.3657 73.4755 18.5014 73.4755 19.9806ZM69.6115 19.9806C69.6115 18.5596 69.8867 17.2726 70.4371 16.1194C70.9874 14.9547 71.7426 14.0462 72.7028 13.3939C73.6746 12.7299 74.7518 12.398 75.9345 12.398C77.1288 12.398 78.2061 12.7299 79.1663 13.3939C80.1381 14.0462 80.8992 14.9547 81.4495 16.1194C82.0116 17.2726 82.2926 18.5596 82.2926 19.9806C82.2926 21.4018 82.0116 22.6947 81.4495 23.8595C80.8992 25.0127 80.1381 25.9212 79.1663 26.585C78.2061 27.2372 77.1288 27.5635 75.9345 27.5635C74.7518 27.5635 73.6746 27.2372 72.7028 26.585C71.7426 25.9212 70.9874 25.0127 70.4371 23.8595C69.8867 22.6947 69.6115 21.4018 69.6115 19.9806ZM58.2653 24.6805C58.2653 24.4243 58.3357 24.2032 58.4762 24.0167L64.483 15.6477H58.8625C58.7338 15.6477 58.6224 15.6069 58.5288 15.5254C58.4468 15.4322 58.4058 15.3215 58.4058 15.1934V13.1667C58.4058 13.0385 58.4468 12.9338 58.5288 12.8522C58.6224 12.7591 58.7338 12.7124 58.8625 12.7124H68.1011C68.23 12.7124 68.3352 12.7591 68.4172 12.8522C68.5108 12.9338 68.5577 13.0385 68.5577 13.1667V15.2807C68.5577 15.5369 68.4876 15.7583 68.347 15.9447L62.9022 23.3878C63.23 23.3296 63.5639 23.3003 63.9034 23.3003C64.7463 23.3003 65.5193 23.376 66.2217 23.5276C66.9359 23.6674 67.6736 23.9003 68.4347 24.2263C68.7042 24.3428 68.8388 24.5408 68.8388 24.8203V26.8297C68.8388 27.0161 68.7802 27.1441 68.6632 27.2141C68.5461 27.2723 68.3997 27.2665 68.2241 27.1967C67.3459 26.8704 66.5672 26.6432 65.888 26.5152C65.2207 26.3754 64.4888 26.3054 63.6926 26.3054C62.9082 26.3054 62.1352 26.3754 61.3741 26.5152C60.6248 26.655 59.7935 26.882 58.8802 27.1967C58.7044 27.2549 58.5582 27.2549 58.4411 27.1967C58.3238 27.1267 58.2653 27.0043 58.2653 26.8297V24.6805ZM48.6053 22.7761C48.6053 23.3935 48.7634 23.8885 49.0795 24.2614C49.4074 24.6223 49.8465 24.8029 50.3968 24.8029C51.1228 24.8029 51.679 24.4825 52.0653 23.842C52.4518 23.1898 52.6449 22.2579 52.6449 21.0465V20.1204C52.3171 20.0622 52.0067 20.0332 51.7141 20.0332C50.7539 20.0332 49.9928 20.2835 49.4309 20.7844C48.8804 21.2736 48.6053 21.9376 48.6053 22.7761ZM44.7764 23.1955C44.7764 22.1589 45.034 21.2502 45.5491 20.47C46.0761 19.6895 46.8197 19.0896 47.7797 18.6702C48.7517 18.2511 49.8875 18.0413 51.1871 18.0413C51.7844 18.0413 52.2702 18.0821 52.6449 18.1636V17.7968C52.6449 16.9114 52.4811 16.2533 52.1532 15.8224C51.8252 15.3797 51.3276 15.1585 50.6603 15.1585C49.583 15.1585 48.8922 15.7234 48.5878 16.8532C48.4941 17.1794 48.3008 17.3192 48.0081 17.2726L45.6195 16.8532C45.4439 16.8183 45.3209 16.7426 45.2506 16.6262C45.192 16.5095 45.1861 16.3523 45.233 16.1543C45.5375 14.9662 46.1816 14.0462 47.165 13.3939C48.1603 12.7299 49.4074 12.398 50.9062 12.398C52.6859 12.398 54.0383 12.8755 54.9634 13.8307C55.9001 14.7857 56.3686 16.1776 56.3686 18.0064V26.7948C56.3686 26.9228 56.3217 27.0336 56.2281 27.1267C56.1461 27.2082 56.0406 27.249 55.9117 27.249H53.6285C53.3475 27.249 53.1719 27.0977 53.1015 26.7948L52.7503 25.1524H52.6098C52.2937 25.9212 51.8195 26.5152 51.1871 26.9345C50.5667 27.3539 49.829 27.5635 48.974 27.5635C48.1427 27.5635 47.411 27.3829 46.7787 27.0218C46.1463 26.6491 45.6546 26.1366 45.3034 25.4844C44.952 24.8203 44.7764 24.0575 44.7764 23.1955ZM23.7701 13.1667C23.7701 13.0385 23.8111 12.9338 23.8931 12.8522C23.9867 12.7591 24.0979 12.7124 24.2268 12.7124H26.5453C26.674 12.7124 26.7794 12.7532 26.8614 12.8348C26.955 12.9163 27.0135 13.0269 27.037 13.1667L27.3882 14.879H27.5287C27.8448 14.0752 28.2958 13.4637 28.8811 13.0443C29.4783 12.6134 30.1808 12.398 30.9889 12.398C31.8553 12.398 32.5989 12.625 33.2195 13.0792C33.8517 13.5335 34.3377 14.1801 34.6773 15.0188H34.8178C35.333 14.1334 35.9126 13.4753 36.5565 13.0443C37.2005 12.6134 37.9207 12.398 38.7169 12.398C39.5835 12.398 40.3328 12.6309 40.965 13.0969C41.6091 13.5627 42.1008 14.2267 42.4404 15.0886C42.7799 15.9506 42.9498 16.9697 42.9498 18.1462V26.7948C42.9498 26.9228 42.9029 27.0336 42.8093 27.1267C42.7273 27.2082 42.6219 27.249 42.4932 27.249H39.683C39.5541 27.249 39.4429 27.2082 39.3491 27.1267C39.2671 27.0336 39.2261 26.9228 39.2261 26.7948V18.4257C39.2261 17.5755 39.0624 16.9232 38.7344 16.4688C38.4067 16.0145 37.9323 15.7875 37.3117 15.7875C36.6327 15.7875 36.1117 16.0553 35.7486 16.5911C35.3974 17.1269 35.2216 17.9015 35.2216 18.9149V26.7948C35.2216 26.9228 35.1749 27.0336 35.0811 27.1267C34.9991 27.2082 34.8939 27.249 34.765 27.249H31.9548C31.8261 27.249 31.7147 27.2082 31.6211 27.1267C31.5391 27.0336 31.4981 26.9228 31.4981 26.7948V18.4257C31.4981 17.5755 31.3342 16.9232 31.0064 16.4688C30.6785 16.0145 30.2043 15.7875 29.5837 15.7875C28.9045 15.7875 28.3835 16.0553 28.0206 16.5911C27.6692 17.1269 27.4936 17.9015 27.4936 18.9149V26.7948C27.4936 26.9228 27.4467 27.0336 27.3531 27.1267C27.2711 27.2082 27.1657 27.249 27.037 27.249H24.2268C24.0979 27.249 23.9867 27.2082 23.8931 27.1267C23.8111 27.0336 23.7701 26.9228 23.7701 26.7948V13.1667ZM13.8289 22.7761C13.8289 23.3935 13.987 23.8885 14.3033 24.2614C14.631 24.6223 15.0701 24.8029 15.6206 24.8029C16.3464 24.8029 16.9026 24.4825 17.2891 23.842C17.6754 23.1898 17.8687 22.2579 17.8687 21.0465V20.1204C17.5408 20.0622 17.2306 20.0332 16.9377 20.0332C15.9777 20.0332 15.2166 20.2835 14.6545 20.7844C14.1042 21.2736 13.8289 21.9376 13.8289 22.7761ZM14.1979 27.5635C13.3666 27.5635 12.6346 27.3829 12.0024 27.0218C11.3701 26.6491 10.8782 26.1366 10.527 25.4844C10.1758 24.8203 10 24.0575 10 23.1955C10 22.1589 10.2578 21.2502 10.773 20.47C11.2998 19.6895 12.0433 19.0896 13.0035 18.6702C13.9753 18.2511 15.1111 18.0413 16.4109 18.0413C17.0081 18.0413 17.4941 18.0821 17.8687 18.1636V17.7968C17.8687 16.9114 17.7047 16.2533 17.3768 15.8224C17.049 15.3797 16.5514 15.1585 15.8839 15.1585C14.8066 15.1585 14.1159 15.7234 13.8114 16.8532C13.7178 17.1794 13.5246 17.3192 13.2318 17.2726L10.8431 16.8532C10.6675 16.8183 10.5445 16.7426 10.4744 16.6262C10.4158 16.5095 10.4099 16.3523 10.4568 16.1543C10.7611 14.9662 11.4052 14.0462 12.3888 13.3939C13.3841 12.7299 14.631 12.398 16.1299 12.398C17.9097 12.398 19.2621 12.8755 20.187 13.8307C21.1237 14.7857 21.5922 16.1776 21.5922 18.0064V26.7948C21.5922 26.9228 21.5453 27.0336 21.4517 27.1267C21.3697 27.2082 21.2642 27.249 21.1355 27.249H18.8522C18.5713 27.249 18.3955 27.0977 18.3253 26.7948L17.974 25.1524H17.8336C17.5173 25.9212 17.0431 26.5152 16.4109 26.9345C15.7903 27.3539 15.0526 27.5635 14.1979 27.5635Z" fill="#232F3E"/>
</g>
<mask id="mask10_2405_245" style="mask-type:luminance" maskUnits="userSpaceOnUse" x="10" y="6" width="219" height="35">
<path d="M10 6H228.999V41H10V6Z" fill="white"/>
</mask>
<g mask="url(#mask10_2405_245)">
<path d="M19.765 29.2589C19.5425 29.4336 19.4958 29.7247 19.6245 30.1325C19.7416 30.4936 20.0167 30.942 20.4501 31.4778C22.1947 33.621 24.2731 35.4031 26.6852 36.8243C29.0973 38.2453 31.6791 39.2936 34.4307 39.9692C37.1942 40.6563 40.016 41 42.8966 41C46.585 41 50.0978 40.4642 53.4348 39.3926C56.772 38.3325 59.5587 36.8418 61.7952 34.9199C62.5798 34.2325 62.972 33.6851 62.972 33.2774C62.972 33.126 62.9076 32.9747 62.7789 32.8231C62.6031 32.6484 62.3924 32.5902 62.1464 32.6484C61.9007 32.7067 61.5552 32.8523 61.1102 33.0852C58.9675 34.2035 56.3563 35.0946 53.2767 35.7584C50.2089 36.434 47.0066 36.7718 43.6694 36.7718C39.5359 36.7718 35.5433 36.2126 31.6909 35.0946C27.8385 33.9763 24.4252 32.2291 21.4511 29.8529C21.0179 29.5151 20.6667 29.2997 20.3973 29.2066C20.1397 29.1132 19.929 29.1307 19.765 29.2589Z" fill="#232F3E"/>
</g>
<mask id="mask11_2405_245" style="mask-type:luminance" maskUnits="userSpaceOnUse" x="10" y="6" width="219" height="35">
<path d="M10 6H228.999V41H10V6Z" fill="white"/>
</mask>
<g mask="url(#mask11_2405_245)">
<path d="M58.7918 30.1328C58.5458 30.3657 58.4816 30.6103 58.5987 30.8666C58.6807 31.053 58.8387 31.1577 59.0728 31.181C59.307 31.2159 59.6406 31.1928 60.074 31.1113C60.7764 30.9597 61.5084 30.855 62.2695 30.7968C63.0305 30.7501 63.6921 30.7617 64.2541 30.8317C64.8162 30.9132 65.1674 31.053 65.3079 31.251C65.5188 31.5655 65.4426 32.2293 65.0797 33.2427C64.7283 34.2561 64.2482 35.2403 63.6394 36.1954C63.4053 36.5799 63.2648 36.8828 63.2179 37.1039C63.171 37.3253 63.2295 37.5117 63.3935 37.6631C63.4989 37.768 63.616 37.8203 63.7449 37.8203C64.0845 37.8203 64.5762 37.5233 65.2202 36.9293C66.3793 35.9276 67.1932 34.7396 67.6615 33.3651C67.9191 32.6546 68.0772 31.909 68.1357 31.1287C68.1942 30.3482 68.1065 29.7891 67.8724 29.4513C67.6499 29.1253 67.158 28.8573 66.397 28.6477C65.6475 28.4379 64.8923 28.3332 64.1312 28.3332C62.6442 28.3332 61.2333 28.6826 59.8982 29.3815C59.4065 29.6493 59.0378 29.8999 58.7918 30.1328Z" fill="#232F3E"/>
</g>
</g>
<defs>
<clipPath id="clip0_2405_245">
<rect width="219" height="35" fill="white" transform="translate(10 6)"/>
</clipPath>
</defs>
</svg>
