<svg width="240" height="48" viewBox="0 0 240 48" fill="none" xmlns="http://www.w3.org/2000/svg">
<g clip-path="url(#clip0_2406_534)">
<path d="M143.337 29.2509C140.953 29.2509 139.24 27.4914 139.24 25.0661C139.24 22.6567 140.953 20.9131 143.273 20.9131C145.593 20.9131 147.322 22.6567 147.322 25.0661C147.322 25.1929 147.306 25.3831 147.29 25.5417H141.081C141.257 26.8414 142.185 27.745 143.401 27.745C144.265 27.745 145.065 27.2853 145.465 26.6037L146.906 27.523C146.186 28.5534 144.793 29.2509 143.337 29.2509ZM141.161 24.1943H145.401C145.113 23.1322 144.297 22.4189 143.273 22.4189C142.249 22.4189 141.449 23.1322 141.161 24.1943Z" fill="black"/>
<path d="M135.698 29.2243V21.1211H137.554V29.6588C137.554 30.7784 137.334 31.5972 136.879 32.0818C136.356 32.6667 135.63 32.9509 134.702 32.9509L134.196 31.2965C134.753 31.2965 135.141 31.1461 135.36 30.8452C135.58 30.5278 135.698 29.993 135.698 29.2243Z" fill="black"/>
<path d="M137.788 18.0954C137.788 18.7332 137.266 19.2502 136.622 19.2502C135.978 19.2502 135.456 18.7332 135.456 18.0954C135.456 17.4575 135.978 16.9404 136.622 16.9404C137.266 16.9404 137.788 17.4575 137.788 18.0954Z" fill="black"/>
<path d="M149.55 18.0947H151.406V21.1194H153.023V22.6253H151.406V29.045H149.55V22.6253H148.243V21.1194H149.55V18.0947Z" fill="black"/>
<path fill-rule="evenodd" clip-rule="evenodd" d="M109.966 29.0451L111.467 26.0356H117.172L118.655 29.0451H120.591L114.319 16.3369L108.048 29.0451H109.966ZM112.244 24.4616L114.319 20.2733L116.394 24.4616H112.244Z" fill="black"/>
<path d="M133.92 23.8254C133.339 23.0918 132.638 22.497 131.328 22.497C129.967 22.497 128.975 23.576 128.975 25.0819C128.975 26.5719 129.967 27.6657 131.328 27.6657C132.638 27.6657 133.339 27.0571 133.92 26.3251V28.4102C133.222 28.9397 132.333 29.2509 131.328 29.2509C128.911 29.2509 127.167 27.4914 127.167 25.0819C127.167 22.6567 128.911 20.9131 131.328 20.9131C132.33 20.9131 133.223 21.2149 133.92 21.7412V23.8254Z" fill="black"/>
<path d="M123.521 29.0447H121.669V21.1229H123.521V21.8819C123.877 21.486 124.174 21.2546 124.415 21.142C124.701 21.0088 125.016 20.9229 125.387 20.9229C125.757 20.9229 126.382 21.0729 126.904 21.3897L126.063 23.0571C125.709 22.807 125.372 22.6903 125.036 22.6903C124.026 22.6903 123.521 23.4406 123.521 24.9413V29.0447Z" fill="black"/>
<path d="M98.6333 23.4055C99.9001 23.7261 100.947 23.9831 103.126 24.4618C100.947 24.9405 99.9001 25.1975 98.6333 25.5182C98.207 25.6261 97.8738 25.9561 97.7649 26.3783C97.4412 27.6327 97.1817 28.6704 96.6985 30.8289C96.2153 28.6704 95.9557 27.6327 95.632 26.3783C95.5231 25.9561 95.1899 25.6261 94.7636 25.5182C93.4968 25.1975 92.4498 24.9405 90.2705 24.4618C92.4498 23.9831 93.4968 23.7261 94.7636 23.4055C95.1899 23.2975 95.5231 22.9675 95.632 22.5453C95.9557 21.2909 96.2153 20.2533 96.6985 18.0947C97.1817 20.2533 97.4412 21.2909 97.7649 22.5453C97.8738 22.9675 98.207 23.2975 98.6333 23.4055Z" fill="black"/>
<path d="M87.8603 24.4616L87.5085 24.8099C83.7927 24.5395 80.3237 24.5356 74 24.4616C80.3237 24.3878 83.7927 24.3831 87.5085 24.1133L87.8603 24.4616Z" fill="black"/>
<path d="M150.658 9.00053C158.591 8.93219 166 15.5349 166 23.4999C166 31.4444 158.629 38.0336 150.72 37.9999L150.658 37.9992C158.685 37.9325 165.172 31.4666 165.172 23.4999C165.172 15.5331 158.685 9.06716 150.658 9.00053Z" fill="black"/>
</g>
<defs>
<clipPath id="clip0_2406_534">
<rect width="92" height="29" fill="white" transform="translate(74 9)"/>
</clipPath>
</defs>
</svg>
