<svg width="240" height="48" viewBox="0 0 240 48" fill="none" xmlns="http://www.w3.org/2000/svg">
<g clip-path="url(#clip0_2406_534)">
<path d="M152.976 31.6307C149.607 31.6307 147.188 29.1431 147.188 25.7143C147.188 22.3078 149.607 19.8428 152.886 19.8428C156.165 19.8428 158.607 22.3078 158.607 25.7143C158.607 25.8935 158.584 26.1624 158.562 26.3866H149.788C150.037 28.2242 151.348 29.5017 153.067 29.5017C154.288 29.5017 155.419 28.8517 155.984 27.8881L158.019 29.1879C157.002 30.6446 155.034 31.6307 152.976 31.6307ZM149.901 24.4818H155.894C155.486 22.9802 154.333 21.9717 152.886 21.9717C151.439 21.9717 150.308 22.9802 149.901 24.4818Z" fill="black"/>
<path d="M142.182 31.593V20.1367H144.805V32.2072C144.805 33.7901 144.495 34.9478 143.851 35.633C143.112 36.4598 142.087 36.8615 140.776 36.8615L140.061 34.5226C140.847 34.5226 141.396 34.31 141.706 33.8846C142.015 33.4358 142.182 32.6798 142.182 31.593Z" fill="black"/>
<path d="M145.136 15.8594C145.136 16.7611 144.398 17.4921 143.488 17.4921C142.578 17.4921 141.841 16.7611 141.841 15.8594C141.841 14.9575 142.578 14.2266 143.488 14.2266C144.398 14.2266 145.136 14.9575 145.136 15.8594Z" fill="black"/>
<path d="M161.755 15.8584H164.378V20.1347H166.662V22.2637H164.378V31.3399H161.755V22.2637H159.908V20.1347H161.755V15.8584Z" fill="black"/>
<path fill-rule="evenodd" clip-rule="evenodd" d="M105.821 31.3398L107.942 27.085H116.005L118.1 31.3398H120.835L111.973 13.373L103.111 31.3398H105.821ZM109.041 24.8597L111.973 18.9382L114.905 24.8597H109.041Z" fill="black"/>
<path d="M139.669 23.9602C138.848 22.9231 137.857 22.0821 136.006 22.0821C134.084 22.0821 132.682 23.6076 132.682 25.7367C132.682 27.8432 134.084 29.3896 136.006 29.3896C137.857 29.3896 138.848 28.5292 139.669 27.4943V30.4422C138.683 31.1907 137.427 31.6307 136.006 31.6307C132.592 31.6307 130.127 29.1431 130.127 25.7367C130.127 22.3078 132.592 19.8428 136.006 19.8428C137.422 19.8428 138.685 20.2695 139.669 21.0136V23.9602Z" fill="black"/>
<path d="M124.975 31.34H122.358V20.1403H124.975V21.2133C125.479 20.6537 125.898 20.3265 126.239 20.1673C126.643 19.9789 127.088 19.8574 127.612 19.8574C128.135 19.8574 129.019 20.0695 129.756 20.5175L128.567 22.8748C128.067 22.5212 127.591 22.3563 127.116 22.3563C125.689 22.3563 124.975 23.4171 124.975 25.5387V31.34Z" fill="black"/>
<path d="M89.8082 23.3667C91.5982 23.82 93.0777 24.1833 96.1572 24.8601C93.0777 25.537 91.5982 25.9003 89.8082 26.3536C89.2058 26.5062 88.7349 26.9727 88.5811 27.5697C88.1237 29.3432 87.757 30.8102 87.0742 33.8619C86.3914 30.8102 86.0247 29.3432 85.5673 27.5697C85.4134 26.9727 84.9425 26.5062 84.3402 26.3536C82.5502 25.9003 81.0706 25.537 77.9912 24.8601C81.0706 24.1833 82.5502 23.82 84.3402 23.3667C84.9425 23.2141 85.4134 22.7476 85.5673 22.1506C86.0247 20.3771 86.3914 18.9101 87.0742 15.8584C87.757 18.9101 88.1237 20.3771 88.5811 22.1506C88.7349 22.7476 89.2058 23.2141 89.8082 23.3667Z" fill="black"/>
<path d="M74.5852 24.8606L74.0881 25.353C68.8375 24.9707 63.9357 24.9652 55 24.8606C63.9357 24.7562 68.8375 24.7496 74.0881 24.3682L74.5852 24.8606Z" fill="black"/>
<path d="M163.321 3.00074C174.531 2.90413 185 12.239 185 23.4999C185 34.7317 174.585 44.0475 163.408 43.9998L163.321 43.9988C174.664 43.9046 183.829 34.7632 183.829 23.4999C183.829 12.2364 174.664 3.09495 163.321 3.00074Z" fill="black"/>
</g>
<defs>
<clipPath id="clip0_2406_534">
<rect width="130" height="41" fill="white" transform="translate(55 3)"/>
</clipPath>
</defs>
</svg>
