<svg width="240" height="48" viewBox="0 0 240 48" fill="none" xmlns="http://www.w3.org/2000/svg">
<path d="M42.2113 13.8662C47.8508 13.8662 52.4225 18.4241 52.4225 24.0465C52.4225 29.669 47.8508 34.2269 42.2113 34.2269C36.5717 34.2269 32 29.669 32 24.0465C32 18.4241 36.5717 13.8662 42.2113 13.8662ZM58.7091 13.8662C64.3439 13.8662 68.9119 18.4241 68.9119 24.0465C68.9119 29.669 64.3439 34.2269 58.7091 34.2269C56.0415 34.2269 53.613 33.2053 51.795 31.5329C52.8842 30.1389 53.6738 28.5006 54.0676 26.7141C54.993 28.3137 56.725 29.3902 58.7091 29.3902C61.6668 29.3902 64.0646 26.9978 64.0646 24.0465C64.0646 21.0953 61.6668 18.7028 58.7091 18.7028C56.7115 18.7028 54.9693 19.7941 54.0487 21.4118C53.6424 19.6292 52.8412 17.9962 51.7418 16.6095C53.5654 14.9079 56.0153 13.8662 58.7091 13.8662ZM42.2113 18.7028C39.2511 18.7028 36.8513 21.0953 36.8513 24.0465C36.8513 26.9978 39.2511 29.3902 42.2113 29.3902C45.1715 29.3902 47.5712 26.9978 47.5712 24.0465C47.5712 21.0953 45.1715 18.7028 42.2113 18.7028ZM161.792 17.7062V20.3227H155.212V23.0333H161.131V25.5368H155.212V28.2662H162V30.8639H152.262V17.7062H161.792ZM146.233 20.2474V30.8639H143.3V20.2474H139.577V17.7062H149.956V20.2474H146.233ZM134.452 17.7062H137.399V30.8639H134.452V17.7062ZM128.176 17.7062H131.12V30.8639H128.176L121.892 22.6192V30.8639H118.948V17.7062H121.703L128.176 26.1768V17.7062ZM112.797 17.7062H115.744V30.8639H112.797V17.7062ZM110.491 17.7062V20.285H104.35V23.1274H110.188V25.7062H104.35V30.8639H101.394V17.7062H110.491ZM94.9899 17.7062H97.9339V30.8639H94.9899L88.7054 22.6192V30.8639H85.7613V17.7062H88.5167L94.9899 26.1768V17.7062ZM79.6109 17.7062H82.558V30.8639H79.6109V17.7062ZM180.774 22.0733C180.774 24.1815 179.937 25.5431 178.264 26.158L181.605 30.8639H177.981L175.055 26.6662H173.017V30.8639H170.073V17.7062H175.074C177.125 17.7062 178.588 18.0513 179.462 18.7415C180.337 19.4317 180.774 20.5423 180.774 22.0733ZM177.145 23.6123C177.51 23.2861 177.693 22.7684 177.693 22.0594C177.693 21.3504 177.504 20.8641 177.126 20.6006C176.749 20.337 176.088 20.2053 175.145 20.2053H172.936V24.1018H175.088C176.095 24.1018 176.78 23.9386 177.145 23.6123ZM193.313 17.7062V20.3227H186.733V23.0333H192.651V25.5368H186.733V28.2662H193.521V30.8639H183.783V17.7062H193.313ZM206.12 19.4286C207.373 20.5768 208 22.1737 208 24.2192C208 26.2647 207.389 27.8835 206.167 29.0757C204.946 30.2678 203.082 30.8639 200.576 30.8639H196.084V17.7062H200.726C203.069 17.7062 204.867 18.2803 206.12 19.4286ZM204.007 27.1888C204.727 26.5112 205.088 25.5261 205.088 24.2335C205.088 22.941 204.727 21.9465 204.007 21.25C203.286 20.5535 202.181 20.2053 200.69 20.2053H199.054V28.2053H200.915C202.256 28.2053 203.286 27.8665 204.007 27.1888Z" fill="#E73536"/>
</svg>
