<svg width="240" height="48" viewBox="0 0 240 48" fill="none" xmlns="http://www.w3.org/2000/svg">
<path d="M46.1533 13.8662C51.7607 13.8662 56.3065 18.4241 56.3065 24.0465C56.3065 29.669 51.7607 34.2269 46.1533 34.2269C40.5458 34.2269 36 29.669 36 24.0465C36 18.4241 40.5458 13.8662 46.1533 13.8662ZM62.5573 13.8662C68.1602 13.8662 72.7021 18.4241 72.7021 24.0465C72.7021 29.669 68.1602 34.2269 62.5573 34.2269C59.9049 34.2269 57.4902 33.2053 55.6826 31.5329C56.7655 30.1389 57.5507 28.5006 57.9422 26.7141C58.8623 28.3137 60.5846 29.3902 62.5573 29.3902C65.4983 29.3902 67.8824 26.9978 67.8824 24.0465C67.8824 21.0953 65.4983 18.7028 62.5573 18.7028C60.5711 18.7028 58.8388 19.7941 57.9235 21.4118C57.5194 19.6292 56.7228 17.9962 55.6296 16.6095C57.4429 14.9079 59.8789 13.8662 62.5573 13.8662ZM46.1533 18.7028C43.2099 18.7028 40.8238 21.0953 40.8238 24.0465C40.8238 26.9978 43.2099 29.3902 46.1533 29.3902C49.0966 29.3902 51.4827 26.9978 51.4827 24.0465C51.4827 21.0953 49.0966 18.7028 46.1533 18.7028ZM165.055 17.7062V20.3227H158.512V23.0333H164.397V25.5368H158.512V28.2662H165.262V30.8639H155.579V17.7062H165.055ZM149.584 20.2474V30.8639H146.668V20.2474H142.966V17.7062H153.286V20.2474H149.584ZM137.87 17.7062H140.8V30.8639H137.87V17.7062ZM131.63 17.7062H134.557V30.8639H131.63L125.381 22.6192V30.8639H122.454V17.7062H125.193L131.63 26.1768V17.7062ZM116.338 17.7062H119.269V30.8639H116.338V17.7062ZM114.045 17.7062V20.285H107.939V23.1274H113.743V25.7062H107.939V30.8639H104.999V17.7062H114.045ZM98.632 17.7062H101.559V30.8639H98.632L92.3832 22.6192V30.8639H89.4559V17.7062H92.1956L98.632 26.1768V17.7062ZM83.3404 17.7062H86.2707V30.8639H83.3404V17.7062ZM183.929 22.0733C183.929 24.1815 183.097 25.5431 181.433 26.158L184.755 30.8639H181.151L178.243 26.6662H176.216V30.8639H173.288V17.7062H178.261C180.301 17.7062 181.755 18.0513 182.625 18.7415C183.494 19.4317 183.929 20.5423 183.929 22.0733ZM180.321 23.6123C180.683 23.2861 180.865 22.7684 180.865 22.0594C180.865 21.3504 180.677 20.8641 180.302 20.6006C179.926 20.337 179.27 20.2053 178.331 20.2053H176.136V24.1018H178.275C179.276 24.1018 179.958 23.9386 180.321 23.6123ZM196.396 17.7062V20.3227H189.854V23.0333H195.738V25.5368H189.854V28.2662H196.603V30.8639H186.921V17.7062H196.396ZM209.131 19.4286C210.377 20.5768 211 22.1737 211 24.2192C211 26.2647 210.393 27.8835 209.178 29.0757C207.963 30.2678 206.11 30.8639 203.618 30.8639H199.151V17.7062H203.767C206.097 17.7062 207.885 18.2803 209.131 19.4286ZM207.03 27.1888C207.746 26.5112 208.104 25.5261 208.104 24.2335C208.104 22.941 207.746 21.9465 207.03 21.25C206.313 20.5535 205.214 20.2053 203.731 20.2053H202.105V28.2053H203.955C205.288 28.2053 206.313 27.8665 207.03 27.1888Z" fill="#E73536"/>
</svg>
